<?xml version="1.0" encoding="UTF-8" standalone="no"?>
<!DOCTYPE svg PUBLIC "-//W3C//DTD SVG 1.1//EN" "http://www.w3.org/Graphics/SVG/1.1/DTD/svg11.dtd">
<!-- Generated by Microsoft Visio, SVG Export Figure-2.svg Page-1 -->
<svg xmlns="http://www.w3.org/2000/svg" xmlns:xlink="http://www.w3.org/1999/xlink" xmlns:ev="http://www.w3.org/2001/xml-events"
		xmlns:v="http://schemas.microsoft.com/visio/2003/SVGExtensions/" width="8.95198in" height="4.75667in"
		viewBox="0 0 644.543 342.48" xml:space="preserve" color-interpolation-filters="sRGB" class="st52">
	<v:documentProperties v:langID="1033" v:viewMarkup="false">
		<v:userDefs>
			<v:ud v:nameU="msvConvertTheme"/>
		</v:userDefs>
	</v:documentProperties>

	<style type="text/css">
	<![CDATA[
		.st1 {fill:#ffffff;stroke:none;stroke-linecap:butt;stroke-width:0.24}
		.st2 {visibility:visible}
		.st3 {fill:#000000;fill-opacity:0.4;filter:url(#filter_2.6666667461395);stroke:#000000;stroke-linecap:butt;stroke-opacity:0.4}
		.st4 {fill:#d8d8d8;stroke:#000000;stroke-linecap:butt;stroke-width:0.24}
		.st5 {fill:#000000;font-family:Arial;font-size:1.08334em}
		.st6 {fill:#000000;stroke:#000000;stroke-linecap:butt;stroke-width:0.24}
		.st7 {fill:#f2f2f2;stroke:#7f7f7f;stroke-linecap:butt;stroke-width:0.24}
		.st8 {fill:#000000;font-family:Arial;font-size:1.00001em}
		.st9 {font-size:1em}
		.st10 {fill:#eaeff5;stroke:#000000;stroke-linecap:butt;stroke-width:0.24}
		.st11 {fill:#000000;font-family:Arial;font-size:1.33333em}
		.st12 {fill:#0000ff;font-family:Rockwell;font-size:1em}
		.st13 {fill:#ebf1df;stroke:#000000;stroke-linecap:butt;stroke-width:0.24}
		.st14 {fill:#0000ff;font-family:Rockwell;font-size:1.49999em;font-weight:bold}
		.st15 {fill:#ff0000;font-size:1em;font-style:italic}
		.st16 {fill:none;stroke:none;stroke-linecap:butt;stroke-width:0.24}
		.st17 {fill:#000000;font-family:Arial Narrow;font-size:1.16666em}
		.st18 {fill:#d5ffee;stroke:#000000;stroke-linecap:butt;stroke-width:0.24}
		.st19 {fill:#0000ff;font-size:1em}
		.st20 {fill:#ff0000;font-family:Rockwell;font-size:1em;font-style:italic}
		.st21 {marker-start:url(#mrkr13-68);stroke:#0000ff;stroke-dasharray:3,1.5;stroke-linecap:butt;stroke-width:1.5}
		.st22 {fill:#0000ff;fill-opacity:1;stroke:#0000ff;stroke-opacity:1;stroke-width:0.37313432835821}
		.st23 {stroke:#7030a0;stroke-dasharray:8,4;stroke-linecap:butt;stroke-width:1}
		.st24 {marker-end:url(#mrkr13-84);stroke:#ff0000;stroke-linecap:butt;stroke-width:1.5}
		.st25 {fill:#ff0000;fill-opacity:1;stroke:#ff0000;stroke-opacity:1;stroke-width:0.37313432835821}
		.st26 {fill:#fcebdd;stroke:#000000;stroke-linecap:butt;stroke-width:0.24}
		.st27 {fill:#000000;font-family:Arial;font-size:1.16666em}
		.st28 {baseline-shift:-32.4943%;font-size:0.649886em}
		.st29 {fill:#ffffff}
		.st30 {stroke:none;stroke-linecap:butt;stroke-width:0.24}
		.st31 {stroke:#000000;stroke-linecap:butt;stroke-width:0.24}
		.st32 {fill:#0000ff;font-family:Rockwell;font-size:1.33333em}
		.st33 {fill:#000000;font-family:Arial;font-size:0.874996em}
		.st34 {font-size:0.874996em;font-weight:bold}
		.st35 {fill:#ccff66}
		.st36 {stroke:#000000;stroke-linecap:butt;stroke-width:1}
		.st37 {fill:#000000;font-family:Arial;font-size:1.00001em;font-style:italic}
		.st38 {fill:#ff0000;font-size:1em}
		.st39 {fill:#bfbfbf;stroke:#000000;stroke-linecap:butt;stroke-width:0.24}
		.st40 {fill:#000000;font-family:Arial;font-size:0.916672em}
		.st41 {fill:#000000;font-family:Arial;font-size:0.833336em}
		.st42 {fill:#eaeff5;stroke:none;stroke-linecap:butt;stroke-width:0.25}
		.st43 {fill:#000000;font-family:Arial Narrow;font-size:0.833336em;font-weight:bold}
		.st44 {fill:#eaeff5;stroke:none;stroke-linecap:butt;stroke-width:0.24}
		.st45 {marker-end:url(#mrkr13-234);stroke:#0000ff;stroke-dasharray:3,1.5;stroke-linecap:butt;stroke-width:1.5}
		.st46 {fill:#000000;font-family:Arial Narrow;font-size:0.75em}
		.st47 {fill:#000000;font-family:Arial Narrow;font-size:0.75em;font-style:italic}
		.st48 {marker-end:url(#mrkr4-274);stroke:#ff0000;stroke-linecap:butt;stroke-width:2}
		.st49 {fill:#ff0000;fill-opacity:1;stroke:#ff0000;stroke-opacity:1;stroke-width:0.44247787610619}
		.st50 {fill:#ff0000;font-family:Rockwell;font-size:1.00001em;font-style:italic}
		.st51 {font-family:Arial;font-size:1em}
		.st52 {fill:none;fill-rule:evenodd;font-size:12px;overflow:visible;stroke-linecap:square;stroke-miterlimit:3}
	]]>
	</style>

	<defs id="Markers">
		<g id="lend13">
			<path d="M 3 1 L 0 0 L 3 -1 L 3 1 " style="stroke:none"/>
		</g>
		<marker id="mrkr13-68" class="st22" v:arrowType="13" v:arrowSize="2" v:setback="7.8" refX="7.8" orient="auto"
				markerUnits="strokeWidth" overflow="visible">
			<use xlink:href="#lend13" transform="scale(2.68) "/>
		</marker>
		<marker id="mrkr13-84" class="st25" v:arrowType="13" v:arrowSize="2" v:setback="8.04" refX="-8.04" orient="auto"
				markerUnits="strokeWidth" overflow="visible">
			<use xlink:href="#lend13" transform="scale(-2.68,-2.68) "/>
		</marker>
		<marker id="mrkr13-234" class="st22" v:arrowType="13" v:arrowSize="2" v:setback="8.04" refX="-8.04" orient="auto"
				markerUnits="strokeWidth" overflow="visible">
			<use xlink:href="#lend13" transform="scale(-2.68,-2.68) "/>
		</marker>
		<g id="lend4">
			<path d="M 2 1 L 0 0 L 2 -1 L 2 1 " style="stroke:none"/>
		</g>
		<marker id="mrkr4-274" class="st49" v:arrowType="4" v:arrowSize="2" v:setback="4.52" refX="-4.52" orient="auto"
				markerUnits="strokeWidth" overflow="visible">
			<use xlink:href="#lend4" transform="scale(-2.26,-2.26) "/>
		</marker>
	</defs>
	<defs id="Filters">
		<filter id="filter_2.6666667461395">
			<feGaussianBlur stdDeviation="2.6666667461395"/>
		</filter>
	</defs>
	<g v:mID="0" v:index="1" v:groupContext="foregroundPage">
		<title>Page-1</title>
		<v:pageProperties v:drawingScale="1" v:pageScale="1" v:drawingUnits="19" v:shadowOffsetX="9" v:shadowOffsetY="-9"/>
		<v:layer v:name="Schemas" v:index="0"/>
		<v:layer v:name="2 instantiation" v:index="1"/>
		<v:layer v:name="6 Implements" v:index="2"/>
		<g id="shape96-1" v:mID="96" v:groupContext="shape" transform="translate(0.24,-0.24)">
			<title>Sheet.96</title>
			<rect x="0" y="0.48" width="644.062" height="342" class="st1"/>
		</g>
		<g id="shape2-3" v:mID="2" v:groupContext="shape" transform="translate(197.903,-7.215)">
			<title>Sheet.2</title>
			<desc>Device model</desc>
			<v:textBlock v:margins="rect(8,4,2,4)" v:verticalAlign="0"/>
			<v:textRect cx="127.8" cy="180.48" width="255.6" height="324"/>
			<g id="shadow2-4" v:groupContext="shadow" v:shadowOffsetX="2.12132" v:shadowOffsetY="-2.12132" v:shadowType="1"
					transform="matrix(1,0,0,1,2.12132,2.12132)" class="st2">
				<rect x="0" y="18.48" width="255.6" height="324" class="st3"/>
			</g>
			<rect x="0" y="18.48" width="255.6" height="324" class="st4"/>
			<text x="88.42" y="36.23" class="st5" v:langID="1033"><v:paragraph v:spLine="-1" v:horizAlign="1"/><v:tabList/>Device model</text>		</g>
		<g id="shape3-9" v:mID="3" v:groupContext="shape" transform="translate(32.3025,-7.215)">
			<title>Sheet.3</title>
			<desc>Control model</desc>
			<v:textBlock v:margins="rect(8,4,2,4)" v:verticalAlign="0"/>
			<v:textRect cx="79.2" cy="180.48" width="158.4" height="324"/>
			<g id="shadow3-10" v:groupContext="shadow" v:shadowOffsetX="2.12132" v:shadowOffsetY="-2.12132" v:shadowType="1"
					transform="matrix(1,0,0,1,2.12132,2.12132)" class="st2">
				<rect x="0" y="18.48" width="158.4" height="324" class="st3"/>
			</g>
			<rect x="0" y="18.48" width="158.4" height="324" class="st4"/>
			<text x="38.74" y="36.23" class="st5" v:langID="1033"><v:paragraph v:spLine="-1" v:horizAlign="1"/><v:tabList/>Control model</text>		</g>
		<g id="group5-15" transform="translate(248.724,-282.105)" v:mID="5" v:groupContext="group">
			<title>Ellipsis</title>
			<g id="shape6-16" v:mID="6" v:groupContext="shape">
				<title>Sheet.6</title>
				<path d="M0 339.95 A2.58459 2.53489 0 0 1 5.17 339.95 A2.58459 2.53489 0 0 1 0 339.95 Z" class="st6"/>
			</g>
			<g id="shape7-18" v:mID="7" v:groupContext="shape" transform="translate(7.79353,0)">
				<title>Sheet.7</title>
				<path d="M0 339.95 A2.58459 2.53489 0 0 1 5.17 339.95 A2.58459 2.53489 0 0 1 0 339.95 Z" class="st6"/>
			</g>
			<g id="shape8-20" v:mID="8" v:groupContext="shape" transform="translate(15.5871,0)">
				<title>Sheet.8</title>
				<path d="M0 339.95 A2.58459 2.53489 0 0 1 5.17 339.95 A2.58459 2.53489 0 0 1 0 339.95 Z" class="st6"/>
			</g>
		</g>
		<g id="shape9-22" v:mID="9" v:groupContext="shape" transform="translate(547.102,-262.815) scale(-1,1)">
			<title>2d Balloon.95</title>
			<desc>Block member objects</desc>
			<v:textBlock v:margins="rect(4,4,2,4)"/>
			<v:textRect cx="27" cy="320.88" width="54" height="43.2"/>
			<path d="M0 317.28 L0 299.28 L23.4 299.28 L27 299.28 L30.6 299.28 L54 299.28 L54 317.28 L72 320.88 L54 324.48 L54 342.48
						 L30.6 342.48 L27 342.48 L23.4 342.48 L0 342.48 L0 324.48 L0 320.88 L0 317.28 Z" class="st7"/>
			<text x="-41.67" y="311.98" transform="scale(-1,1)" class="st8" v:langID="1033"><v:paragraph v:spLine="-1.1"
						v:horizAlign="1"/><v:tabList/>Block<v:newlineChar/><tspan x="-49.01" dy="1.1em" class="st9">member </tspan><tspan
						x="-46.01" dy="1.1em" class="st9">objects </tspan> </text>		</g>
		<g id="shape10-27" v:mID="10" v:groupContext="shape" transform="translate(61.1025,-245.265)">
			<title>Sheet.10</title>
			<desc>abstract class ncObject</desc>
			<v:textBlock v:margins="rect(4,4,2,4)"/>
			<v:textRect cx="50.4" cy="313.68" width="100.8" height="57.6"/>
			<g id="shadow10-28" v:groupContext="shadow" v:shadowOffsetX="2.12132" v:shadowOffsetY="-2.12132" v:shadowType="1"
					transform="matrix(1,0,0,1,2.12132,2.12132)" class="st2">
				<rect x="0" y="284.88" width="100.8" height="57.6" rx="9" ry="9" class="st3"/>
			</g>
			<rect x="0" y="284.88" width="100.8" height="57.6" rx="9" ry="9" class="st10"/>
			<text x="21.94" y="301.31" class="st11" v:langID="1033"><v:paragraph v:spLine="-1.1" v:horizAlign="1"/><v:tabList/>abstract <tspan
						x="32.17" dy="1.1em" class="st9">class<v:newlineChar/></tspan><tspan x="16.56" dy="1.116em" class="st12">ncObject</tspan></text>		</g>
		<g id="shape12-35" v:mID="12" v:groupContext="shape" transform="translate(212.303,-36.015)">
			<title>Sheet.12</title>
			<desc>Blockspec X - - - JSON file(s)</desc>
			<v:textBlock v:margins="rect(4,4,4,4)"/>
			<v:textRect cx="50.4" cy="309.855" width="100.8" height="65.25"/>
			<g id="shadow12-36" v:groupContext="shadow" v:shadowOffsetX="2.12132" v:shadowOffsetY="-2.12132" v:shadowType="1"
					transform="matrix(1,0,0,1,2.12132,2.12132)" class="st2">
				<rect x="0" y="277.23" width="100.8" height="65.25" class="st3"/>
			</g>
			<rect x="0" y="277.23" width="100.8" height="65.25" class="st13"/>
			<text x="14.72" y="301.59" class="st8" v:langID="1033"><v:paragraph v:spLine="-1.1" v:horizAlign="1"/><v:tabList/>Blockspec <tspan
						class="st14">X<v:newlineChar/></tspan><tspan x="41.07" dy="1.237em" class="st9">-</tspan> - -<v:newlineChar/><tspan
						x="18.06" dy="1.102em" class="st15">JSON file(s)</tspan></text>		</g>
		<g id="shape13-44" v:mID="13" v:groupContext="shape" transform="translate(-317.378,335.265) rotate(-90)">
			<title>Sheet.13</title>
			<desc>Documentation</desc>
			<v:textBlock v:margins="rect(4,4,2,0)"/>
			<v:textRect cx="55.8" cy="331.68" width="111.6" height="21.6"/>
			<rect x="0" y="320.88" width="111.6" height="21.6" class="st16"/>
			<text x="15.19" y="337.23" class="st17" v:langID="1033"><v:paragraph v:spLine="-1.3" v:horizAlign="1"/><v:tabList/>Documentation</text>		</g>
		<g id="shape17-47" v:mID="17" v:groupContext="shape" transform="translate(61.1025,-14.415)">
			<title>Sheet.17</title>
			<desc>Control Model ncBlock and many more - - - NC-Framework WebIDL...</desc>
			<v:textBlock v:margins="rect(4,4,4,4)"/>
			<v:textRect cx="50.4" cy="299.055" width="100.8" height="86.85"/>
			<g id="shadow17-48" v:groupContext="shadow" v:shadowOffsetX="2.12132" v:shadowOffsetY="-2.12132" v:shadowType="1"
					transform="matrix(1,0,0,1,2.12132,2.12132)" class="st2">
				<rect x="0" y="255.63" width="100.8" height="86.85" class="st3"/>
			</g>
			<rect x="0" y="255.63" width="100.8" height="86.85" class="st18"/>
			<text x="13.05" y="268.92" class="st8" v:langID="1033"><v:paragraph v:spLine="-1" v:horizAlign="1"/><v:tabList/>Control Model<v:newlineChar/><v:newlineChar/><tspan
						x="12.71" dy="1.5em" class="st19">   </tspan><tspan class="st19">ncBlock and<v:newlineChar/></tspan><tspan
						x="15.39" dy="1em" class="st19">   </tspan><tspan class="st19">many more<v:newlineChar/></tspan><tspan
						x="41.07" dy="1em" class="st9">-</tspan> - -<v:newlineChar/><tspan x="9.2" dy="1.016em" class="st20">NC</tspan><tspan
						class="st20">-</tspan><tspan class="st20">Framework</tspan><tspan class="st15"> </tspan><tspan x="16.39"
						dy="1.005em" class="st15">WebIDL files</tspan></text>		</g>
		<g id="shape19-63" v:mID="19" v:groupContext="shape" transform="translate(453.982,202.065) rotate(90)">
			<title>Sheet.19</title>
			<path d="M11.7 342.48 L12.06 342.48 L39.15 342.48" class="st21"/>
		</g>
		<g id="shape20-69" v:mID="20" v:groupContext="shape" v:layerMember="0" transform="translate(6.84536,-118.815)">
			<title>Sheet.20</title>
			<path d="M0 342.48 L456.86 342.48" class="st23"/>
		</g>
		<g id="shape21-72" v:mID="21" v:groupContext="shape" transform="translate(61.1025,-140.415)">
			<title>Sheet.21</title>
			<desc>block class ncBlock</desc>
			<v:textBlock v:margins="rect(4,4,2,4)"/>
			<v:textRect cx="50.4" cy="304.455" width="100.8" height="76.05"/>
			<g id="shadow21-73" v:groupContext="shadow" v:shadowOffsetX="2.12132" v:shadowOffsetY="-2.12132" v:shadowType="1"
					transform="matrix(1,0,0,1,2.12132,2.12132)" class="st2">
				<rect x="0" y="266.43" width="100.8" height="76.05" rx="9" ry="9" class="st3"/>
			</g>
			<rect x="0" y="266.43" width="100.8" height="76.05" rx="9" ry="9" class="st10"/>
			<text x="11.28" y="301.06" class="st11" v:langID="1033"><v:paragraph v:spLine="-1.1" v:horizAlign="1"/><v:tabList/>block class<v:newlineChar/><tspan
						x="21.31" dy="1.1em" class="st12">ncBlock</tspan></text>		</g>
		<g id="shape22-79" v:mID="22" v:groupContext="shape" transform="translate(572.783,76.065) rotate(90)">
			<title>Sheet.22</title>
			<path d="M0 342.48 L9.54 342.48" class="st24"/>
		</g>
		<g id="shape23-85" v:mID="23" v:groupContext="shape" transform="translate(630.383,76.065) rotate(90)">
			<title>Sheet.23</title>
			<path d="M0 342.48 L9.54 342.48" class="st24"/>
		</g>
		<g id="shape24-90" v:mID="24" v:groupContext="shape" transform="translate(273.503,-266.415)">
			<title>Sheet.24</title>
			<desc>On</desc>
			<v:textBlock v:margins="rect(4,0,2,0)"/>
			<v:textRect cx="14.4" cy="324.255" width="28.81" height="36.45"/>
			<g id="shadow24-91" v:groupContext="shadow" v:shadowOffsetX="2.12132" v:shadowOffsetY="-2.12132" v:shadowType="1"
					transform="matrix(1,0,0,1,2.12132,2.12132)" class="st2">
				<rect x="0" y="306.03" width="28.8" height="36.45" class="st3"/>
			</g>
			<rect x="0" y="306.03" width="28.8" height="36.45" class="st26"/>
			<text x="6.43" y="329.11" class="st27" v:langID="1033"><v:paragraph v:spLine="-1.1" v:horizAlign="1"/><v:tabList/>O<tspan
						dy="-0.287em" class="st28" v:baseFontSize="14">n</tspan></text>		</g>
		<g id="group25-97" transform="translate(-212.977,97.215) rotate(-90) scale(-1,1)" v:mID="25" v:groupContext="group">
			<title>Arrow.79</title>
			<g id="shape26-98" v:mID="26" v:groupContext="shape">
				<title>1-D single.111</title>
				<path d="M0 333.48 L19.8 333.48 L19.8 342.48 L28.8 324.48 L19.8 306.48 L19.8 315.48 L0 315.48 L0 333.48 Z"
						class="st29"/>
				<path d="M0 333.48 L19.8 333.48 L19.8 342.48 L28.8 324.48 L19.8 306.48 L19.8 315.48 L0 315.48" class="st30"/>
			</g>
			<g id="shape27-101" v:mID="27" v:groupContext="shape">
				<title>1-D single.112</title>
				<path d="M0 333.48 L19.8 333.48 L19.8 342.48 L28.8 324.48 L19.8 306.48 L19.8 315.48 L0 315.48 L0 333.48"
						class="st31"/>
			</g>
		</g>
		<g id="shape28-104" v:mID="28" v:groupContext="shape" transform="translate(215.903,-266.415)">
			<title>Sheet.28</title>
			<desc>O1</desc>
			<v:textBlock v:margins="rect(4,0,2,0)"/>
			<v:textRect cx="14.4" cy="324.255" width="28.81" height="36.45"/>
			<g id="shadow28-105" v:groupContext="shadow" v:shadowOffsetX="2.12132" v:shadowOffsetY="-2.12132" v:shadowType="1"
					transform="matrix(1,0,0,1,2.12132,2.12132)" class="st2">
				<rect x="0" y="306.03" width="28.8" height="36.45" class="st3"/>
			</g>
			<rect x="0" y="306.03" width="28.8" height="36.45" class="st26"/>
			<text x="6.43" y="329.11" class="st27" v:langID="1033"><v:paragraph v:spLine="-1.1" v:horizAlign="1"/><v:tabList/>O<tspan
						dy="-0.287em" class="st28" v:baseFontSize="14">1</tspan></text>		</g>
		<g id="shape29-111" v:mID="29" v:groupContext="shape" transform="translate(338.303,-144.015)">
			<title>Sheet.29</title>
			<desc>ncBlock instance Y</desc>
			<v:textBlock v:margins="rect(4,4,2,4)"/>
			<v:textRect cx="50.4" cy="313.68" width="100.8" height="57.6"/>
			<g id="shadow29-112" v:groupContext="shadow" v:shadowOffsetX="2.12132" v:shadowOffsetY="-2.12132" v:shadowType="1"
					transform="matrix(1,0,0,1,2.12132,2.12132)" class="st2">
				<rect x="0" y="284.88" width="100.8" height="57.6" class="st3"/>
			</g>
			<rect x="0" y="284.88" width="100.8" height="57.6" class="st26"/>
			<text x="21.31" y="303.55" class="st32" v:langID="1033"><v:paragraph v:spLine="-1.1" v:horizAlign="1"/><v:tabList/>ncBlock<v:newlineChar/><tspan
						x="24.33" dy="1.139em" class="st33">instance<v:lf/></tspan><tspan x="45.51" dy="1.114em" class="st34">Y</tspan></text>		</g>
		<g id="group30-119" transform="translate(161.903,472.545) scale(1,-1)" v:mID="30" v:groupContext="group" v:layerMember="1">
			<title>Arrow.58</title>
			<g id="shape31-120" v:mID="31" v:groupContext="shape" v:layerMember="1">
				<title>1-D single.111</title>
				<path d="M0 337.08 L45.34 337.08 L45.34 342.48 L50.74 331.68 L45.34 320.88 L45.34 326.28 L0 326.28 L0 337.08 Z"
						class="st35"/>
				<path d="M0 337.08 L45.34 337.08 L45.34 342.48 L50.74 331.68 L45.34 320.88 L45.34 326.28 L0 326.28" class="st30"/>
			</g>
			<g id="shape32-123" v:mID="32" v:groupContext="shape" v:layerMember="1">
				<title>1-D single.112</title>
				<path d="M0 337.08 L45.34 337.08 L45.34 342.48 L50.74 331.68 L45.34 320.88 L45.34 326.28 L0 326.28 L0 337.08"
						class="st31"/>
			</g>
		</g>
		<g id="group33-126" transform="translate(161.903,516.098) scale(1,-1)" v:mID="33" v:groupContext="group" v:layerMember="1">
			<title>Arrow.89</title>
			<g id="shape34-127" v:mID="34" v:groupContext="shape" v:layerMember="1">
				<title>1-D single.111</title>
				<path d="M0 337.08 L170.21 337.08 L170.21 342.48 L175.61 331.68 L170.21 320.88 L170.21 326.28 L0 326.28 L0 337.08
							 Z" class="st35"/>
				<path d="M0 337.08 L170.21 337.08 L170.21 342.48 L175.61 331.68 L170.21 320.88 L170.21 326.28 L0 326.28"
						class="st30"/>
			</g>
			<g id="shape35-130" v:mID="35" v:groupContext="shape" v:layerMember="1">
				<title>1-D single.112</title>
				<path d="M0 337.08 L170.21 337.08 L170.21 342.48 L175.61 331.68 L170.21 320.88 L170.21 326.28 L0 326.28 L0 337.08"
						class="st31"/>
			</g>
		</g>
		<g id="shape36-133" v:mID="36" v:groupContext="shape" transform="translate(212.303,-187.215)">
			<title>Sheet.36</title>
			<desc>ncBlock instance X</desc>
			<v:textBlock v:margins="rect(4,4,2,4)"/>
			<v:textRect cx="50.4" cy="313.68" width="100.8" height="57.6"/>
			<g id="shadow36-134" v:groupContext="shadow" v:shadowOffsetX="2.12132" v:shadowOffsetY="-2.12132" v:shadowType="1"
					transform="matrix(1,0,0,1,2.12132,2.12132)" class="st2">
				<rect x="0" y="284.88" width="100.8" height="57.6" class="st3"/>
			</g>
			<rect x="0" y="284.88" width="100.8" height="57.6" class="st26"/>
			<text x="21.31" y="303.55" class="st32" v:langID="1033"><v:paragraph v:spLine="-1.1" v:horizAlign="1"/><v:tabList/>ncBlock<v:newlineChar/><tspan
						x="24.33" dy="1.139em" class="st33">instance<v:newlineChar/></tspan><tspan x="45.22" dy="1.114em"
						class="st34">X</tspan></text>		</g>
		<g id="shape37-141" v:mID="37" v:groupContext="shape" transform="translate(457.103,-144.015)">
			<title>Brace</title>
			<path d="M-0 342.48 A8.28038 9.31264 -180 0 0 7.2 334.38 L7.2 301.91 A7.581 8.52607 0 0 1 14.4 293.89 A7.30099 8.21115
						 0 0 1 7.2 285.76 L7.2 253.41 A6.64011 7.46788 -180 0 0 0 245.31" class="st36"/>
		</g>
		<g id="shape38-144" v:mID="38" v:groupContext="shape" transform="translate(-317.378,223.665) rotate(-90)">
			<title>Sheet.38</title>
			<desc>Device elements</desc>
			<v:textBlock v:margins="rect(4,4,2,0)"/>
			<v:textRect cx="106.2" cy="331.68" width="212.4" height="21.6"/>
			<rect x="0" y="320.88" width="212.4" height="21.6" class="st16"/>
			<text x="61.77" y="337.23" class="st17" v:langID="1033"><v:paragraph v:spLine="-1.3" v:horizAlign="1"/><v:tabList/>Device elements</text>		</g>
		<g id="shape39-147" v:mID="39" v:groupContext="shape" transform="translate(605.183,154.727) rotate(90)">
			<title>Sheet.39</title>
			<path d="M11.7 342.48 L12.06 342.48 L86.49 342.48" class="st21"/>
		</g>
		<g id="group40-152" transform="translate(378.324,-282.105)" v:mID="40" v:groupContext="group">
			<title>Ellipsis.108</title>
			<g id="shape41-153" v:mID="41" v:groupContext="shape">
				<title>Sheet.41</title>
				<path d="M0 339.95 A2.58459 2.53489 0 0 1 5.17 339.95 A2.58459 2.53489 0 0 1 0 339.95 Z" class="st6"/>
			</g>
			<g id="shape42-155" v:mID="42" v:groupContext="shape" transform="translate(7.79353,0)">
				<title>Sheet.42</title>
				<path d="M0 339.95 A2.58459 2.53489 0 0 1 5.17 339.95 A2.58459 2.53489 0 0 1 0 339.95 Z" class="st6"/>
			</g>
			<g id="shape43-157" v:mID="43" v:groupContext="shape" transform="translate(15.5871,0)">
				<title>Sheet.43</title>
				<path d="M0 339.95 A2.58459 2.53489 0 0 1 5.17 339.95 A2.58459 2.53489 0 0 1 0 339.95 Z" class="st6"/>
			</g>
		</g>
		<g id="shape44-159" v:mID="44" v:groupContext="shape" transform="translate(702.383,76.065) rotate(90)">
			<title>Sheet.44</title>
			<path d="M0 342.48 L52.74 342.48" class="st24"/>
		</g>
		<g id="shape45-164" v:mID="45" v:groupContext="shape" transform="translate(759.982,76.065) rotate(90)">
			<title>Sheet.45</title>
			<path d="M0 342.48 L52.74 342.48" class="st24"/>
		</g>
		<g id="shape46-169" v:mID="46" v:groupContext="shape" transform="translate(403.103,-266.415)">
			<title>Sheet.46</title>
			<desc>O2n</desc>
			<v:textBlock v:margins="rect(4,0,2,0)"/>
			<v:textRect cx="14.4" cy="324.255" width="28.81" height="36.45"/>
			<g id="shadow46-170" v:groupContext="shadow" v:shadowOffsetX="2.12132" v:shadowOffsetY="-2.12132" v:shadowType="1"
					transform="matrix(1,0,0,1,2.12132,2.12132)" class="st2">
				<rect x="0" y="306.03" width="28.8" height="36.45" class="st3"/>
			</g>
			<rect x="0" y="306.03" width="28.8" height="36.45" class="st26"/>
			<text x="3.9" y="329.11" class="st27" v:langID="1033"><v:paragraph v:spLine="-1.1" v:horizAlign="1"/><v:tabList/>O<tspan
						dy="-0.287em" class="st28" v:baseFontSize="14">2n</tspan></text>		</g>
		<g id="shape47-176" v:mID="47" v:groupContext="shape" transform="translate(345.503,-266.415)">
			<title>Sheet.47</title>
			<desc>On+1</desc>
			<v:textBlock v:margins="rect(4,0,2,0)"/>
			<v:textRect cx="14.4" cy="324.255" width="28.81" height="36.45"/>
			<g id="shadow47-177" v:groupContext="shadow" v:shadowOffsetX="2.12132" v:shadowOffsetY="-2.12132" v:shadowType="1"
					transform="matrix(1,0,0,1,2.12132,2.12132)" class="st2">
				<rect x="0" y="306.03" width="28.8" height="36.45" class="st3"/>
			</g>
			<rect x="0" y="306.03" width="28.8" height="36.45" class="st26"/>
			<text x="1.24" y="329.11" class="st27" v:langID="1033"><v:paragraph v:spLine="-1.1" v:horizAlign="1"/><v:tabList/>O<tspan
						dy="-0.287em" class="st28" v:baseFontSize="14">n+1</tspan></text>		</g>
		<g id="shape76-183" v:mID="76" v:groupContext="shape" transform="translate(547.102,-169.215) scale(-1,1)">
			<title>2d Balloon.76</title>
			<desc>Blocks</desc>
			<v:textBlock v:margins="rect(4,4,2,4)"/>
			<v:textRect cx="27" cy="319.08" width="54" height="46.8"/>
			<path d="M0 315.48 L0 295.68 L23.4 295.68 L27 295.68 L30.6 295.68 L54 295.68 L54 315.48 L72 319.36 L54 322.68 L54 342.48
						 L30.6 342.48 L27 342.48 L23.4 342.48 L0 342.48 L0 322.68 L0 319.08 L0 315.48 Z" class="st7"/>
			<text x="-44.67" y="323.38" transform="scale(-1,1)" class="st8" v:langID="1033"><v:paragraph v:spLine="-1.1"
						v:horizAlign="1"/><v:tabList/>Blocks</text>		</g>
		<g id="shape79-186" v:mID="79" v:groupContext="shape" transform="translate(457.103,-266.415)">
			<title>Brace.79</title>
			<path d="M-0 342.48 A9.12135 3.44913 -180 0 0 7.93 339.48 L7.93 327.46 A8.35094 3.1578 0 0 1 15.86 324.49 A8.04249 3.04117
						 0 0 1 7.93 321.47 L7.93 309.49 A7.31449 2.76588 -180 0 0 -0 306.49" class="st36"/>
		</g>
		<g id="shape80-189" v:mID="80" v:groupContext="shape" transform="translate(338.303,-36.015)">
			<title>Sheet.80</title>
			<desc>Blockspec Y - - - JSON file(s)</desc>
			<v:textBlock v:margins="rect(4,4,4,4)"/>
			<v:textRect cx="50.4" cy="309.855" width="100.8" height="65.25"/>
			<g id="shadow80-190" v:groupContext="shadow" v:shadowOffsetX="2.12132" v:shadowOffsetY="-2.12132" v:shadowType="1"
					transform="matrix(1,0,0,1,2.12132,2.12132)" class="st2">
				<rect x="0" y="277.23" width="100.8" height="65.25" class="st3"/>
			</g>
			<rect x="0" y="277.23" width="100.8" height="65.25" class="st13"/>
			<text x="15.76" y="301.61" class="st37" v:langID="1033"><v:paragraph v:spLine="-1.1" v:horizAlign="1"/><v:tabList/>Blockspec <tspan
						class="st14">Y<v:newlineChar/></tspan><tspan x="41.07" dy="1.237em" class="st9">-</tspan> - -<v:newlineChar/><tspan
						x="18.06" dy="1.1em" class="st38">JSON file(s)</tspan></text>		</g>
		<g id="shape81-198" v:mID="81" v:groupContext="shape" transform="translate(731.183,198.465) rotate(90)">
			<title>Sheet.81</title>
			<path d="M11.7 342.48 L12.06 342.48 L42.75 342.48" class="st21"/>
		</g>
		<g id="group94-203" transform="translate(467.903,-7.215)" v:mID="94" v:groupContext="group">
			<title>Sheet.94</title>
			<g id="shape49-204" v:mID="49" v:groupContext="shape" v:layerMember="1;2">
				<title>Sheet.49</title>
				<desc>LEGEND</desc>
				<v:textBlock v:margins="rect(4,4,0,4)" v:verticalAlign="0"/>
				<v:textRect cx="82.8" cy="265.08" width="165.6" height="154.8"/>
				<g id="shadow49-205" v:groupContext="shadow" v:shadowOffsetX="2.12132" v:shadowOffsetY="-2.12132" v:shadowType="1"
						transform="matrix(1,0,0,1,2.12132,2.12132)" class="st2">
					<rect x="0" y="187.68" width="165.6" height="154.8" class="st3"/>
				</g>
				<rect x="0" y="187.68" width="165.6" height="154.8" class="st39"/>
				<text x="60.18" y="199.93" class="st40" v:langID="1033"><v:paragraph v:spLine="-1" v:horizAlign="1"/><v:tabList/>LEGEND</text>			</g>
			<g id="shape50-210" v:mID="50" v:groupContext="shape" transform="translate(7.2,-40.8)">
				<title>Sheet.50</title>
				<desc>WebIDL</desc>
				<v:textBlock v:margins="rect(4,4,2,4)"/>
				<v:textRect cx="36" cy="328.08" width="72" height="28.8"/>
				<rect x="0" y="313.68" width="72" height="28.8" class="st18"/>
				<text x="17.94" y="331.83" class="st41" v:langID="1033"><v:paragraph v:spLine="-1.1" v:horizAlign="1"/><v:tabList/>WebIDL</text>			</g>
			<g id="shape51-213" v:mID="51" v:groupContext="shape" transform="translate(7.2,-74.4)">
				<title>Sheet.51</title>
				<desc>object</desc>
				<v:textBlock v:margins="rect(4,4,2,4)"/>
				<v:textRect cx="36" cy="328.08" width="72" height="28.8"/>
				<rect x="0" y="313.68" width="72" height="28.8" class="st26"/>
				<text x="19.99" y="332.38" class="st8" v:langID="1033"><v:paragraph v:spLine="-1.1" v:horizAlign="1"/><v:tabList/>object</text>			</g>
			<g id="shape52-216" v:mID="52" v:groupContext="shape" transform="translate(7.2,-108)">
				<title>Sheet.52</title>
				<desc>class</desc>
				<v:textBlock v:margins="rect(4,4,2,4)"/>
				<v:textRect cx="36" cy="328.08" width="72" height="28.8"/>
				<rect x="0" y="313.68" width="72" height="28.8" rx="4.5" ry="4.5" class="st10"/>
				<text x="20.05" y="333" class="st27" v:langID="1033"><v:paragraph v:spLine="-1.1" v:horizAlign="1"/><v:tabList/>class</text>			</g>
			<g id="shape53-219" v:mID="53" v:groupContext="shape" v:layerMember="1" transform="translate(86.4,-104.4)">
				<title>Sheet.53</title>
				<desc>Inheritance</desc>
				<v:textBlock v:margins="rect(4,4,0,4)" v:verticalAlign="2"/>
				<v:textRect cx="36" cy="326.28" width="72" height="32.4"/>
				<rect x="0" y="310.08" width="72" height="32.4" class="st42"/>
				<text x="14.13" y="339.73" class="st43" v:langID="1033"><v:paragraph v:spLine="-1.1" v:horizAlign="1"/><v:tabList/>Inheritance</text>			</g>
			<g id="shape54-222" v:mID="54" v:groupContext="shape" v:layerMember="1" transform="translate(86.4,-64.8)">
				<title>Sheet.54</title>
				<desc>Instantiation</desc>
				<v:textBlock v:margins="rect(4,4,0,4)" v:verticalAlign="2"/>
				<v:textRect cx="36" cy="326.28" width="72" height="32.4"/>
				<rect x="0" y="310.08" width="72" height="32.4" class="st42"/>
				<text x="11.63" y="339.73" class="st43" v:langID="1033"><v:paragraph v:spLine="-1.1" v:horizAlign="1"/><v:tabList/>Instantiation</text>			</g>
			<g id="shape55-225" v:mID="55" v:groupContext="shape" v:layerMember="1" transform="translate(86.4,-35.9333)">
				<title>Sheet.55</title>
				<rect x="0" y="320.88" width="72" height="21.6" class="st44"/>
			</g>
			<g id="shape59-227" v:mID="59" v:groupContext="shape" v:layerMember="1" transform="translate(86.4,-7.2)">
				<title>Sheet.59</title>
				<rect x="0" y="320.88" width="72" height="21.6" class="st44"/>
			</g>
			<g id="shape61-229" v:mID="61" v:groupContext="shape" transform="translate(88.5375,-18)">
				<title>Sheet.61</title>
				<path d="M0 342.48 L13.14 342.48" class="st45"/>
			</g>
			<g id="shape62-235" v:mID="62" v:groupContext="shape" v:layerMember="2" transform="translate(113.738,-7.2)">
				<title>Sheet.62</title>
				<desc>Defines</desc>
				<v:textBlock v:margins="rect(4,0,3,4)"/>
				<v:textRect cx="21.2625" cy="331.68" width="42.53" height="21.6"/>
				<rect x="0" y="320.88" width="42.525" height="21.6" class="st16"/>
				<text x="4" y="334.66" class="st46" v:langID="1033"><v:paragraph v:spLine="-1.1"/><v:tabList/>Defines</text>			</g>
			<g id="group70-238" transform="translate(111.6,589.56) scale(1,-1)" v:mID="70" v:groupContext="group" v:layerMember="1">
				<title>Arrow.41</title>
				<g id="shape71-239" v:mID="71" v:groupContext="shape" v:layerMember="1">
					<title>1-D single.111</title>
					<path d="M0 337.98 L17.1 337.98 L17.1 342.48 L21.6 333.48 L17.1 324.48 L17.1 328.98 L0 328.98 L0 337.98 Z"
							class="st35"/>
					<path d="M0 337.98 L17.1 337.98 L17.1 342.48 L21.6 333.48 L17.1 324.48 L17.1 328.98 L0 328.98" class="st30"/>
				</g>
				<g id="shape72-242" v:mID="72" v:groupContext="shape" v:layerMember="1">
					<title>1-D single.112</title>
					<path d="M0 337.98 L17.1 337.98 L17.1 342.48 L21.6 333.48 L17.1 324.48 L17.1 328.98 L0 328.98 L0 337.98"
							class="st31"/>
				</g>
			</g>
			<g id="shape73-245" v:mID="73" v:groupContext="shape" v:layerMember="1" transform="translate(133.2,-75.6)">
				<title>Sheet.73</title>
				<desc>object</desc>
				<v:textBlock v:margins="rect(4,0,3,0)"/>
				<v:textRect cx="12.6" cy="331.68" width="25.2" height="21.6"/>
				<rect x="0" y="320.88" width="25.2" height="21.6" class="st16"/>
				<text x="2.75" y="334.66" class="st47" v:langID="1033"><v:paragraph v:spLine="-1.1" v:horizAlign="1"/><v:tabList/>object</text>			</g>
			<g id="shape74-248" v:mID="74" v:groupContext="shape" v:layerMember="1" transform="translate(86.4,-75.6)">
				<title>Sheet.74</title>
				<desc>class</desc>
				<v:textBlock v:margins="rect(4,0,3,0)"/>
				<v:textRect cx="12.6" cy="331.68" width="25.2" height="21.6"/>
				<rect x="0" y="320.88" width="25.2" height="21.6" class="st16"/>
				<text x="4.19" y="334.66" class="st47" v:langID="1033"><v:paragraph v:spLine="-1.1" v:horizAlign="1"/><v:tabList/>class</text>			</g>
			<g id="shape84-251" v:mID="84" v:groupContext="shape" transform="translate(7.2,-7.2)">
				<title>Sheet.84</title>
				<desc>JSON</desc>
				<v:textBlock v:margins="rect(4,4,4,4)"/>
				<v:textRect cx="36" cy="328.08" width="72" height="28.8"/>
				<rect x="0" y="313.68" width="72" height="28.8" class="st13"/>
				<text x="20" y="331.38" class="st8" v:langID="1033"><v:paragraph v:spLine="-1.1" v:horizAlign="1"/><v:tabList/>JSON</text>			</g>
			<g id="group64-254" transform="translate(111.6,549.96) scale(1,-1)" v:mID="64" v:groupContext="group" v:layerMember="1">
				<title>Arrow.59</title>
				<g id="shape65-255" v:mID="65" v:groupContext="shape" v:layerMember="1">
					<title>1-D single.111</title>
					<path d="M0 337.98 L17.1 337.98 L17.1 342.48 L21.6 333.48 L17.1 324.48 L17.1 328.98 L0 328.98 L0 337.98 Z"
							class="st29"/>
					<path d="M0 337.98 L17.1 337.98 L17.1 342.48 L21.6 333.48 L17.1 324.48 L17.1 328.98 L0 328.98" class="st30"/>
				</g>
				<g id="shape66-258" v:mID="66" v:groupContext="shape" v:layerMember="1">
					<title>1-D single.112</title>
					<path d="M0 337.98 L17.1 337.98 L17.1 342.48 L21.6 333.48 L17.1 324.48 L17.1 328.98 L0 328.98 L0 337.98"
							class="st31"/>
				</g>
			</g>
			<g id="shape67-261" v:mID="67" v:groupContext="shape" v:layerMember="1" transform="translate(133.2,-115.2)">
				<title>Sheet.67</title>
				<desc>child class</desc>
				<v:textBlock v:margins="rect(4,0,3,0)"/>
				<v:textRect cx="12.6" cy="331.68" width="25.2" height="21.6"/>
				<rect x="0" y="320.88" width="25.2" height="21.6" class="st16"/>
				<text x="5.01" y="329.93" class="st47" v:langID="1033"><v:paragraph v:spLine="-1" v:horizAlign="1"/><v:tabList/>child <tspan
							x="4.19" dy="1em" class="st9">class</tspan></text>			</g>
			<g id="shape68-265" v:mID="68" v:groupContext="shape" v:layerMember="1" transform="translate(86.4,-115.2)">
				<title>Sheet.68</title>
				<desc>parent class</desc>
				<v:textBlock v:margins="rect(4,0,3,0)"/>
				<v:textRect cx="12.6" cy="331.68" width="25.21" height="21.6"/>
				<rect x="0" y="320.88" width="25.2" height="21.6" class="st16"/>
				<text x="2.14" y="329.93" class="st47" v:langID="1033"><v:paragraph v:spLine="-1" v:horizAlign="1"/><v:tabList/>parent <tspan
							x="4.19" dy="1em" class="st9">class</tspan></text>			</g>
			<g id="shape57-269" v:mID="57" v:groupContext="shape" v:layerMember="2"
					transform="translate(113.738,638.227) rotate(180)">
				<title>Sheet.57</title>
				<path d="M0 342.48 L16.16 342.48" class="st48"/>
			</g>
			<g id="shape58-275" v:mID="58" v:groupContext="shape" v:layerMember="2" transform="translate(113.738,-35.9333)">
				<title>Sheet.58</title>
				<desc>Member of</desc>
				<v:textBlock v:margins="rect(4,0,3,4)"/>
				<v:textRect cx="21.2625" cy="331.68" width="42.53" height="21.6"/>
				<rect x="0" y="320.88" width="42.525" height="21.6" class="st16"/>
				<text x="4" y="334.66" class="st46" v:langID="1033"><v:paragraph v:spLine="-1.1"/><v:tabList/>Member of</text>			</g>
		</g>
		<g id="shape95-278" v:mID="95" v:groupContext="shape" transform="translate(212.303,-14.415)">
			<title>Sheet.95</title>
			<desc>NC-Blockspec JSON schema</desc>
			<v:textBlock v:margins="rect(4,4,4,4)"/>
			<v:textRect cx="113.4" cy="331.68" width="226.8" height="21.6"/>
			<g id="shadow95-279" v:groupContext="shadow" v:shadowOffsetX="2.12132" v:shadowOffsetY="-2.12132" v:shadowType="1"
					transform="matrix(1,0,0,1,2.12132,2.12132)" class="st2">
				<rect x="0" y="320.88" width="226.8" height="21.6" class="st3"/>
			</g>
			<rect x="0" y="320.88" width="226.8" height="21.6" class="st13"/>
			<text x="35.18" y="335.05" class="st50" v:langID="1033"><v:paragraph v:spLine="-1.1" v:horizAlign="1"/><v:tabList/>NC-Blockspec<tspan
						class="st51"> </tspan><tspan class="st51">JSON schema</tspan></text>		</g>
	</g>
</svg>
