<?xml version="1.0" encoding="UTF-8" standalone="no"?>
<!DOCTYPE svg PUBLIC "-//W3C//DTD SVG 1.1//EN" "http://www.w3.org/Graphics/SVG/1.1/DTD/svg11.dtd">
<!-- Generated by Microsoft Visio, SVG Export Figure-2.svg Page-1 -->
<svg xmlns="http://www.w3.org/2000/svg" xmlns:xlink="http://www.w3.org/1999/xlink" xmlns:ev="http://www.w3.org/2001/xml-events"
		xmlns:v="http://schemas.microsoft.com/visio/2003/SVGExtensions/" width="6.43015in" height="3.71806in"
		viewBox="0 0 462.971 267.7" xml:space="preserve" color-interpolation-filters="sRGB" class="st19">
	<v:documentProperties v:langID="1033" v:viewMarkup="false">
		<v:userDefs>
			<v:ud v:nameU="msvConvertTheme"/>
		</v:userDefs>
	</v:documentProperties>

	<style type="text/css">
	<![CDATA[
		.st1 {visibility:visible}
		.st2 {fill:#000000;fill-opacity:0.4;filter:url(#filter_2.6666667461395);stroke:#000000;stroke-linecap:butt;stroke-opacity:0.4}
		.st3 {fill:#7f7f7f;stroke:#000000;stroke-linecap:butt;stroke-width:0.5}
		.st4 {fill:#000000;font-family:Arial Narrow;font-size:1.16666em;font-weight:bold}
		.st5 {fill:#bfbfbf;stroke:#000000;stroke-linecap:butt;stroke-width:0.5}
		.st6 {fill:#000000;font-family:Arial Narrow;font-size:1.00001em;font-weight:bold}
		.st7 {fill:#f2f2f2;stroke:#000000;stroke-linecap:butt;stroke-width:0.5}
		.st8 {fill:#000000;font-family:Arial Narrow;font-size:0.833336em}
		.st9 {font-size:1em}
		.st10 {fill:#d8d8d8;stroke:#000000;stroke-linecap:butt;stroke-width:0.5}
		.st11 {fill:#000000;font-family:Arial Narrow;font-size:0.916672em;font-weight:bold}
		.st12 {fill:#fcebdd;stroke:#000000;stroke-linecap:butt;stroke-width:0.5}
		.st13 {fill:#ff0000;font-family:Arial Narrow;font-size:0.916672em;font-weight:bold}
		.st14 {fill:#ebf1df;stroke:#000000;stroke-linecap:butt;stroke-width:0.5}
		.st15 {fill:#000000;font-family:Arial Narrow;font-size:0.916672em}
		.st16 {fill:#000000;stroke:#000000;stroke-linecap:butt;stroke-width:0.5}
		.st17 {fill:#fcebdd;stroke:#ff0000;stroke-linecap:butt;stroke-width:0.5}
		.st18 {fill:#ff0000;font-family:Arial Narrow;font-size:0.75em;font-weight:bold}
		.st19 {fill:none;fill-rule:evenodd;font-size:12px;overflow:visible;stroke-linecap:square;stroke-miterlimit:3}
	]]>
	</style>

	<defs id="Filters">
		<filter id="filter_2.6666667461395">
			<feGaussianBlur stdDeviation="2.6666667461395"/>
		</filter>
	</defs>
	<g v:mID="0" v:index="1" v:groupContext="foregroundPage">
		<title>Page-1</title>
		<v:pageProperties v:drawingScale="1" v:pageScale="1" v:drawingUnits="19" v:shadowOffsetX="9" v:shadowOffsetY="-9"/>
		<g id="shape1-1" v:mID="1" v:groupContext="shape" transform="translate(2.99982,-6.37132)">
			<title>Sheet.1</title>
			<desc>Device</desc>
			<v:textBlock v:margins="rect(4,4,2,4)" v:verticalAlign="0"/>
			<v:textRect cx="226.8" cy="138.1" width="453.6" height="259.2"/>
			<g id="shadow1-2" v:groupContext="shadow" v:shadowOffsetX="2.12132" v:shadowOffsetY="-2.12132" v:shadowType="1"
					transform="matrix(1,0,0,1,2.12132,2.12132)" class="st1">
				<rect x="0" y="8.49999" width="453.6" height="259.2" class="st2"/>
			</g>
			<rect x="0" y="8.49999" width="453.6" height="259.2" class="st3"/>
			<text x="4" y="23" class="st4" v:langID="1033"><v:paragraph v:spLine="-1"/><v:tabList/>Device</text>		</g>
		<g id="shape2-7" v:mID="2" v:groupContext="shape" transform="translate(10.1998,-13.5713)">
			<title>Sheet.2</title>
			<desc>root block</desc>
			<v:textBlock v:margins="rect(4,4,2,4)" v:verticalAlign="0"/>
			<v:textRect cx="219.6" cy="152.5" width="439.2" height="230.4"/>
			<g id="shadow2-8" v:groupContext="shadow" v:shadowOffsetX="2.12132" v:shadowOffsetY="-2.12132" v:shadowType="1"
					transform="matrix(1,0,0,1,2.12132,2.12132)" class="st1">
				<rect x="0" y="37.3" width="439.2" height="230.4" class="st2"/>
			</g>
			<rect x="0" y="37.3" width="439.2" height="230.4" class="st5"/>
			<text x="4" y="50.3" class="st6" v:langID="1033"><v:paragraph v:spLine="-1"/><v:tabList/>root block</text>		</g>
		<g id="shape11-13" v:mID="11" v:groupContext="shape" transform="translate(339.656,-20.7713)">
			<title>2d Balloon</title>
			<desc>House-keeping objects</desc>
			<v:textBlock v:margins="rect(4,4,2,4)"/>
			<v:textRect cx="43.2" cy="246.1" width="86.4" height="43.2"/>
			<path d="M0 242.5 L0 224.5 L39.6 224.5 L43.2 195.7 L46.8 224.5 L86.4 224.5 L86.4 242.5 L86.4 246.1 L86.4 249.7 L86.4
						 267.7 L46.8 267.7 L43.2 267.7 L39.6 267.7 L0 267.7 L0 249.7 L0 246.1 L0 242.5 Z" class="st7"/>
			<text x="15.62" y="244.6" class="st8" v:langID="1033"><v:paragraph v:spLine="-1" v:horizAlign="1"/><v:tabList/>House-keeping <tspan
						x="30.21" dy="1em" class="st9">objects</tspan></text>		</g>
		<g id="shape12-17" v:mID="12" v:groupContext="shape" transform="translate(17.3998,-128.771)">
			<title>Sheet.12</title>
			<desc>block(1)</desc>
			<v:textBlock v:margins="rect(4,4,2,4)" v:verticalAlign="0"/>
			<v:textRect cx="107.906" cy="220.9" width="215.82" height="93.6"/>
			<g id="shadow12-18" v:groupContext="shadow" v:shadowOffsetX="2.12132" v:shadowOffsetY="-2.12132" v:shadowType="1"
					transform="matrix(1,0,0,1,2.12132,2.12132)" class="st1">
				<rect x="0" y="174.1" width="215.812" height="93.6" class="st2"/>
			</g>
			<rect x="0" y="174.1" width="215.812" height="93.6" class="st10"/>
			<text x="4" y="186.35" class="st11" v:langID="1033"><v:paragraph v:spLine="-1"/><v:tabList/>block(1)</text>		</g>
		<g id="shape16-23" v:mID="16" v:groupContext="shape" transform="translate(247.8,-179.171)">
			<title>Sheet.16</title>
			<desc>O(1)</desc>
			<v:textBlock v:margins="rect(4,4,2,4)"/>
			<v:textRect cx="43.2" cy="246.1" width="86.4" height="43.2"/>
			<g id="shadow16-24" v:groupContext="shadow" v:shadowOffsetX="2.12132" v:shadowOffsetY="-2.12132" v:shadowType="1"
					transform="matrix(1,0,0,1,2.12132,2.12132)" class="st1">
				<rect x="0" y="224.5" width="86.4" height="43.2" class="st2"/>
			</g>
			<rect x="0" y="224.5" width="86.4" height="43.2" class="st12"/>
			<text x="34.18" y="249.85" class="st13" v:langID="1033"><v:paragraph v:spLine="-1" v:horizAlign="1"/><v:tabList/>O(1)</text>		</g>
		<g id="shape17-29" v:mID="17" v:groupContext="shape" transform="translate(247.8,-92.7713)">
			<title>Sheet.17</title>
			<desc>O(n)</desc>
			<v:textBlock v:margins="rect(4,4,2,4)"/>
			<v:textRect cx="43.2" cy="246.1" width="86.4" height="43.2"/>
			<g id="shadow17-30" v:groupContext="shadow" v:shadowOffsetX="2.12132" v:shadowOffsetY="-2.12132" v:shadowType="1"
					transform="matrix(1,0,0,1,2.12132,2.12132)" class="st1">
				<rect x="0" y="224.5" width="86.4" height="43.2" class="st2"/>
			</g>
			<rect x="0" y="224.5" width="86.4" height="43.2" class="st12"/>
			<text x="33.93" y="249.85" class="st13" v:langID="1033"><v:paragraph v:spLine="-1" v:horizAlign="1"/><v:tabList/>O(n)</text>		</g>
		<g id="shape3-35" v:mID="3" v:groupContext="shape" transform="translate(339.656,-179.171)">
			<title>Sheet.3</title>
			<desc>manager(1)</desc>
			<v:textBlock v:margins="rect(4,4,2,4)"/>
			<v:textRect cx="43.2" cy="246.1" width="86.4" height="43.2"/>
			<g id="shadow3-36" v:groupContext="shadow" v:shadowOffsetX="2.12132" v:shadowOffsetY="-2.12132" v:shadowType="1"
					transform="matrix(1,0,0,1,2.12132,2.12132)" class="st1">
				<rect x="0" y="224.5" width="86.4" height="43.2" class="st2"/>
			</g>
			<rect x="0" y="224.5" width="86.4" height="43.2" class="st14"/>
			<text x="19.89" y="249.85" class="st15" v:langID="1033"><v:paragraph v:spLine="-1" v:horizAlign="1"/><v:tabList/>manager(1)</text>		</g>
		<g id="shape4-41" v:mID="4" v:groupContext="shape" transform="translate(339.656,-92.7713)">
			<title>Sheet.4</title>
			<desc>manager(n)</desc>
			<v:textBlock v:margins="rect(4,4,2,4)"/>
			<v:textRect cx="43.2" cy="246.1" width="86.4" height="43.2"/>
			<g id="shadow4-42" v:groupContext="shadow" v:shadowOffsetX="2.12132" v:shadowOffsetY="-2.12132" v:shadowType="1"
					transform="matrix(1,0,0,1,2.12132,2.12132)" class="st1">
				<rect x="0" y="224.5" width="86.4" height="43.2" class="st2"/>
			</g>
			<rect x="0" y="224.5" width="86.4" height="43.2" class="st14"/>
			<text x="19.89" y="249.85" class="st15" v:langID="1033"><v:paragraph v:spLine="-1" v:horizAlign="1"/><v:tabList/>manager(n)</text>		</g>
		<g id="shape14-47" v:mID="14" v:groupContext="shape" transform="translate(31.7998,-135.971)">
			<title>Sheet.14</title>
			<desc>block(1)</desc>
			<v:textBlock v:margins="rect(4,4,2,4)" v:verticalAlign="0"/>
			<v:textRect cx="39.6" cy="238.9" width="79.2" height="57.6"/>
			<g id="shadow14-48" v:groupContext="shadow" v:shadowOffsetX="2.12132" v:shadowOffsetY="-2.12132" v:shadowType="1"
					transform="matrix(1,0,0,1,2.12132,2.12132)" class="st1">
				<rect x="0" y="210.1" width="79.2" height="57.6" class="st2"/>
			</g>
			<rect x="0" y="210.1" width="79.2" height="57.6" class="st7"/>
			<text x="4" y="222.35" class="st11" v:langID="1033"><v:paragraph v:spLine="-1"/><v:tabList/>block(1)</text>		</g>
		<g id="shape29-53" v:mID="29" v:groupContext="shape" transform="translate(43.4998,-156.766)">
			<title>Sheet.29</title>
			<rect x="0" y="256.401" width="10.8" height="11.2989" class="st12"/>
		</g>
		<g id="shape30-55" v:mID="30" v:groupContext="shape" transform="translate(56.0998,-148.891)">
			<title>Sheet.30</title>
			<rect x="0" y="256.401" width="10.8" height="11.2989" class="st12"/>
		</g>
		<g id="shape31-57" v:mID="31" v:groupContext="shape" transform="translate(68.6998,-156.766)">
			<title>Sheet.31</title>
			<rect x="0" y="256.401" width="10.8" height="11.2989" class="st12"/>
		</g>
		<g id="shape32-59" v:mID="32" v:groupContext="shape" transform="translate(81.2998,-146.152)">
			<title>Sheet.32</title>
			<rect x="0" y="256.401" width="10.8" height="11.2989" class="st12"/>
		</g>
		<g id="shape15-61" v:mID="15" v:groupContext="shape" transform="translate(143.4,-135.971)">
			<title>Sheet.15</title>
			<desc>block(n)</desc>
			<v:textBlock v:margins="rect(4,4,2,4)" v:verticalAlign="0"/>
			<v:textRect cx="39.6" cy="238.9" width="79.2" height="57.6"/>
			<g id="shadow15-62" v:groupContext="shadow" v:shadowOffsetX="2.12132" v:shadowOffsetY="-2.12132" v:shadowType="1"
					transform="matrix(1,0,0,1,2.12132,2.12132)" class="st1">
				<rect x="0" y="210.1" width="79.2" height="57.6" class="st2"/>
			</g>
			<rect x="0" y="210.1" width="79.2" height="57.6" class="st7"/>
			<text x="4" y="222.35" class="st11" v:langID="1033"><v:paragraph v:spLine="-1"/><v:tabList/>block(n)</text>		</g>
		<g id="shape33-67" v:mID="33" v:groupContext="shape" transform="translate(160.425,-156.937)">
			<title>Sheet.33</title>
			<rect x="0" y="256.401" width="10.8" height="11.2989" class="st12"/>
		</g>
		<g id="shape34-69" v:mID="34" v:groupContext="shape" transform="translate(176.625,-145.981)">
			<title>Sheet.34</title>
			<rect x="0" y="256.401" width="10.8" height="11.2989" class="st12"/>
		</g>
		<g id="shape35-71" v:mID="35" v:groupContext="shape" transform="translate(192.825,-156.595)">
			<title>Sheet.35</title>
			<rect x="0" y="256.401" width="10.8" height="11.2989" class="st12"/>
		</g>
		<g id="group57-73" transform="translate(138.413,367.89) rotate(180)" v:mID="57" v:groupContext="group">
			<title>Ellipsis.57</title>
			<g id="shape58-74" v:mID="58" v:groupContext="shape">
				<title>Sheet.58</title>
				<path d="M0 264.96 A2.79263 2.73892 0 0 1 5.59 264.96 A2.79263 2.73892 0 0 1 0 264.96 Z" class="st16"/>
			</g>
			<g id="shape59-76" v:mID="59" v:groupContext="shape" transform="translate(8.42084,0)">
				<title>Sheet.59</title>
				<path d="M0 264.96 A2.79263 2.73892 0 0 1 5.59 264.96 A2.79263 2.73892 0 0 1 0 264.96 Z" class="st16"/>
			</g>
			<g id="shape60-78" v:mID="60" v:groupContext="shape" transform="translate(16.8417,0)">
				<title>Sheet.60</title>
				<path d="M0 264.96 A2.79263 2.73892 0 0 1 5.59 264.96 A2.79263 2.73892 0 0 1 0 264.96 Z" class="st16"/>
			</g>
		</g>
		<g id="group74-80" transform="translate(118.52,125.363) rotate(-90)" v:mID="74" v:groupContext="group">
			<title>Ellipsis.74</title>
			<g id="shape75-81" v:mID="75" v:groupContext="shape">
				<title>Sheet.75</title>
				<path d="M0 264.34 A3.42972 3.36376 0 0 1 6.86 264.34 A3.42972 3.36376 0 0 1 0 264.34 Z" class="st16"/>
			</g>
			<g id="shape76-83" v:mID="76" v:groupContext="shape" transform="translate(10.3419,0)">
				<title>Sheet.76</title>
				<path d="M0 264.34 A3.42972 3.36376 0 0 1 6.86 264.34 A3.42972 3.36376 0 0 1 0 264.34 Z" class="st16"/>
			</g>
			<g id="shape77-85" v:mID="77" v:groupContext="shape" transform="translate(20.6839,0)">
				<title>Sheet.77</title>
				<path d="M0 264.34 A3.42972 3.36376 0 0 1 6.86 264.34 A3.42972 3.36376 0 0 1 0 264.34 Z" class="st16"/>
			</g>
		</g>
		<g id="group78-87" transform="translate(26.6636,123.9) rotate(-90)" v:mID="78" v:groupContext="group">
			<title>Ellipsis.78</title>
			<g id="shape79-88" v:mID="79" v:groupContext="shape">
				<title>Sheet.79</title>
				<path d="M0 264.34 A3.42972 3.36376 0 0 1 6.86 264.34 A3.42972 3.36376 0 0 1 0 264.34 Z" class="st16"/>
			</g>
			<g id="shape80-90" v:mID="80" v:groupContext="shape" transform="translate(10.3419,0)">
				<title>Sheet.80</title>
				<path d="M0 264.34 A3.42972 3.36376 0 0 1 6.86 264.34 A3.42972 3.36376 0 0 1 0 264.34 Z" class="st16"/>
			</g>
			<g id="shape81-92" v:mID="81" v:groupContext="shape" transform="translate(20.6839,0)">
				<title>Sheet.81</title>
				<path d="M0 264.34 A3.42972 3.36376 0 0 1 6.86 264.34 A3.42972 3.36376 0 0 1 0 264.34 Z" class="st16"/>
			</g>
		</g>
		<g id="shape13-94" v:mID="13" v:groupContext="shape" transform="translate(17.3998,-20.7713)">
			<title>Sheet.13</title>
			<desc>block(n)</desc>
			<v:textBlock v:margins="rect(4,4,2,4)" v:verticalAlign="0"/>
			<v:textRect cx="107.906" cy="235.3" width="215.82" height="64.8"/>
			<g id="shadow13-95" v:groupContext="shadow" v:shadowOffsetX="2.12132" v:shadowOffsetY="-2.12132" v:shadowType="1"
					transform="matrix(1,0,0,1,2.12132,2.12132)" class="st1">
				<rect x="0" y="202.9" width="215.812" height="64.8" class="st2"/>
			</g>
			<rect x="0" y="202.9" width="215.812" height="64.8" class="st10"/>
			<text x="4" y="215.15" class="st11" v:langID="1033"><v:paragraph v:spLine="-1"/><v:tabList/>block(n)</text>		</g>
		<g id="shape19-100" v:mID="19" v:groupContext="shape" transform="translate(31.7998,-27.9713)">
			<title>Sheet.19</title>
			<desc>O(1)</desc>
			<v:textBlock v:margins="rect(4,0,2,0)"/>
			<v:textRect cx="28.8" cy="246.466" width="57.6" height="42.4688"/>
			<rect x="0" y="225.231" width="57.6" height="42.4688" class="st17"/>
			<text x="21.42" y="249.72" class="st18" v:langID="1033"><v:paragraph v:spLine="-1" v:horizAlign="1"/><v:tabList/>O(1)</text>		</g>
		<g id="group20-103" transform="translate(111.423,-45.7918)" v:mID="20" v:groupContext="group">
			<title>Ellipsis.20</title>
			<g id="shape21-104" v:mID="21" v:groupContext="shape">
				<title>Sheet.21</title>
				<path d="M0 264.29 A3.48085 3.41391 0 1 1 6.96 264.29 A3.48085 3.41391 0 1 1 0 264.29 Z" class="st16"/>
			</g>
			<g id="shape22-106" v:mID="22" v:groupContext="shape" transform="translate(10.4961,0)">
				<title>Sheet.22</title>
				<path d="M0 264.29 A3.48085 3.41391 0 1 1 6.96 264.29 A3.48085 3.41391 0 1 1 0 264.29 Z" class="st16"/>
			</g>
			<g id="shape23-108" v:mID="23" v:groupContext="shape" transform="translate(20.9922,0)">
				<title>Sheet.23</title>
				<path d="M0 264.29 A3.48085 3.41391 0 1 1 6.96 264.29 A3.48085 3.41391 0 1 1 0 264.29 Z" class="st16"/>
			</g>
		</g>
		<g id="shape24-110" v:mID="24" v:groupContext="shape" transform="translate(161.4,-27.9713)">
			<title>Sheet.24</title>
			<desc>O(n)</desc>
			<v:textBlock v:margins="rect(4,0,2,0)"/>
			<v:textRect cx="28.8" cy="246.466" width="57.6" height="42.4688"/>
			<rect x="0" y="225.231" width="57.6" height="42.4688" class="st17"/>
			<text x="21.22" y="249.72" class="st18" v:langID="1033"><v:paragraph v:spLine="-1" v:horizAlign="1"/><v:tabList/>O(n)</text>		</g>
		<g id="shape73-113" v:mID="73" v:groupContext="shape" transform="translate(269.4,-35.1713)">
			<title>2d Balloon.73</title>
			<path d="M0 254.2 L0 246.1 L21.09 246.1 L24.69 246.1 L28.29 246.1 L49.39 246.1 L49.39 254.2 L49.39 256.9 L49.39 259.6
						 L49.39 267.7 L28.29 267.7 L24.69 267.7 L21.09 267.7 L0 267.7 L0 259.6 L-46.58 256.9 L0 254.2 Z"
					class="st7"/>
		</g>
		<g id="shape18-115" v:mID="18" v:groupContext="shape" transform="translate(247.8,-20.7713)">
			<title>2d Balloon.18</title>
			<desc>Application Function Objects</desc>
			<v:textBlock v:margins="rect(4,4,2,4)"/>
			<v:textRect cx="43.2" cy="246.1" width="86.4" height="43.2"/>
			<path d="M0 242.5 L0 224.5 L39.6 224.5 L43.2 195.7 L46.8 224.5 L86.4 224.5 L86.4 242.5 L86.4 246.1 L86.4 249.7 L86.4
						 267.7 L46.8 267.7 L43.2 267.7 L39.6 267.7 L0 267.7 L0 249.7 L0 246.1 L0 242.5 Z" class="st7"/>
			<text x="6.27" y="244.6" class="st8" v:langID="1033"><v:paragraph v:spLine="-1" v:horizAlign="1"/><v:tabList/>Application Function <tspan
						x="29.3" dy="1em" class="st9">Objects</tspan></text>		</g>
		<g id="group83-119" transform="translate(-139.03,174.3) rotate(-90)" v:mID="83" v:groupContext="group">
			<title>Ellipsis.83</title>
			<g id="shape84-120" v:mID="84" v:groupContext="shape">
				<title>Sheet.84</title>
				<path d="M0 264.34 A3.42972 3.36376 0 0 1 6.86 264.34 A3.42972 3.36376 0 0 1 0 264.34 Z" class="st16"/>
			</g>
			<g id="shape85-122" v:mID="85" v:groupContext="shape" transform="translate(10.3419,0)">
				<title>Sheet.85</title>
				<path d="M0 264.34 A3.42972 3.36376 0 0 1 6.86 264.34 A3.42972 3.36376 0 0 1 0 264.34 Z" class="st16"/>
			</g>
			<g id="shape86-124" v:mID="86" v:groupContext="shape" transform="translate(20.6839,0)">
				<title>Sheet.86</title>
				<path d="M0 264.34 A3.42972 3.36376 0 0 1 6.86 264.34 A3.42972 3.36376 0 0 1 0 264.34 Z" class="st16"/>
			</g>
		</g>
	</g>
</svg>
