<?xml version="1.0" encoding="UTF-8" standalone="no"?>
<!DOCTYPE svg PUBLIC "-//W3C//DTD SVG 1.1//EN" "http://www.w3.org/Graphics/SVG/1.1/DTD/svg11.dtd">
<!-- Generated by Microsoft Visio, SVG Export Figure-3.svg Page-1 -->
<svg xmlns="http://www.w3.org/2000/svg" xmlns:xlink="http://www.w3.org/1999/xlink" xmlns:ev="http://www.w3.org/2001/xml-events"
		xmlns:v="http://schemas.microsoft.com/visio/2003/SVGExtensions/" width="8.39002in" height="1.08109in"
		viewBox="0 0 604.081 77.8387" xml:space="preserve" color-interpolation-filters="sRGB" class="st18">
	<v:documentProperties v:langID="1033" v:viewMarkup="false">
		<v:userDefs>
			<v:ud v:nameU="msvConvertTheme"/>
		</v:userDefs>
	</v:documentProperties>

	<style type="text/css">
	<![CDATA[
		.st1 {visibility:visible}
		.st2 {fill:#000000;fill-opacity:0.4;filter:url(#filter_2.6666667461395);stroke:#000000;stroke-linecap:butt;stroke-opacity:0.4}
		.st3 {fill:#ffffff;stroke:#000000;stroke-linecap:butt;stroke-width:0.24}
		.st4 {fill:#ffff99;stroke:#000000;stroke-linecap:butt;stroke-width:0.24}
		.st5 {fill:#bfbfbf;stroke:#000000;stroke-linecap:butt;stroke-width:0.24}
		.st6 {fill:none;stroke:none;stroke-linecap:butt;stroke-width:0.24}
		.st7 {fill:#000000;font-family:Arial;font-size:0.75em}
		.st8 {fill:#66ff66;stroke:#000000;stroke-linecap:butt;stroke-width:0.24}
		.st9 {fill:#000000;font-family:Arial;font-size:0.916672em}
		.st10 {stroke:#66ff66;stroke-linecap:butt;stroke-width:2.25}
		.st11 {marker-end:url(#mrkr13-64);stroke:#ff0000;stroke-linecap:butt;stroke-width:1}
		.st12 {fill:#ff0000;fill-opacity:1;stroke:#ff0000;stroke-opacity:1;stroke-width:0.28409090909091}
		.st13 {fill:#ff0000;font-family:Arial Narrow;font-size:0.75em;font-style:italic}
		.st14 {fill:#000000;font-family:Arial;font-size:0.916672em;font-weight:bold}
		.st15 {fill:#000000;font-family:Arial Narrow;font-size:0.833336em}
		.st16 {font-size:1em}
		.st17 {fill:#ffff99;stroke:none;stroke-linecap:butt;stroke-width:7.2}
		.st18 {fill:none;fill-rule:evenodd;font-size:12px;overflow:visible;stroke-linecap:square;stroke-miterlimit:3}
	]]>
	</style>

	<defs id="Markers">
		<g id="lend13">
			<path d="M 3 1 L 0 0 L 3 -1 L 3 1 " style="stroke:none"/>
		</g>
		<marker id="mrkr13-64" class="st12" v:arrowType="13" v:arrowSize="2" v:setback="10.56" refX="-10.56" orient="auto"
				markerUnits="strokeWidth" overflow="visible">
			<use xlink:href="#lend13" transform="scale(-3.52,-3.52) "/>
		</marker>
	</defs>
	<defs id="Filters">
		<filter id="filter_2.6666667461395">
			<feGaussianBlur stdDeviation="2.6666667461395"/>
		</filter>
	</defs>
	<g v:mID="0" v:index="1" v:groupContext="foregroundPage">
		<title>Page-1</title>
		<v:pageProperties v:drawingScale="1" v:pageScale="1" v:drawingUnits="19" v:shadowOffsetX="9" v:shadowOffsetY="-9"/>
		<g id="group453-1" transform="translate(389.04,-14.64)" v:mID="453" v:groupContext="group">
			<title>Sheet.453</title>
			<g id="shape192-2" v:mID="192" v:groupContext="shape">
				<title>Sheet.192</title>
				<g id="shadow192-3" v:groupContext="shadow" v:shadowOffsetX="2.12132" v:shadowOffsetY="-2.12132" v:shadowType="1"
						transform="matrix(1,0,0,1,2.12132,2.12132)" class="st1">
					<rect x="0" y="16.6387" width="208.8" height="61.2" class="st2"/>
				</g>
				<rect x="0" y="16.6387" width="208.8" height="61.2" class="st3"/>
			</g>
			<g id="shape183-7" v:mID="183" v:groupContext="shape" transform="translate(3.6,-43.2)">
				<title>Sheet.183</title>
				<rect x="0" y="63.4387" width="39.6" height="14.4" class="st4"/>
			</g>
			<g id="shape184-9" v:mID="184" v:groupContext="shape" transform="translate(3.6,-25.2)">
				<title>Sheet.184</title>
				<rect x="0" y="63.4387" width="39.6" height="14.4" class="st5"/>
			</g>
			<g id="shape185-11" v:mID="185" v:groupContext="shape" transform="translate(43.2,-43.2)">
				<title>Sheet.185</title>
				<desc>Application Object</desc>
				<v:textBlock v:margins="rect(4,0,2,4)"/>
				<v:textRect cx="39.6" cy="70.6387" width="79.2" height="14.4"/>
				<rect x="0" y="63.4387" width="79.2" height="14.4" class="st6"/>
				<text x="4" y="73.89" class="st7" v:langID="1033"><v:paragraph v:spLine="-1"/><v:tabList/>Application Object</text>			</g>
			<g id="shape187-14" v:mID="187" v:groupContext="shape" transform="translate(43.2,-25.2)">
				<title>Sheet.187</title>
				<desc>Block</desc>
				<v:textBlock v:margins="rect(4,0,2,4)"/>
				<v:textRect cx="39.6" cy="70.6387" width="79.2" height="14.4"/>
				<rect x="0" y="63.4387" width="79.2" height="14.4" class="st6"/>
				<text x="4" y="73.89" class="st7" v:langID="1033"><v:paragraph v:spLine="-1"/><v:tabList/>Block</text>			</g>
			<g id="shape430-17" v:mID="430" v:groupContext="shape" transform="translate(156.712,-44.8875)">
				<title>Sheet.430</title>
				<desc>Port</desc>
				<v:textBlock v:margins="rect(4,0,2,4)"/>
				<v:textRect cx="26.0438" cy="70.6387" width="52.09" height="14.4"/>
				<rect x="0" y="63.4387" width="52.0875" height="14.4" class="st6"/>
				<text x="4" y="73.89" class="st7" v:langID="1033"><v:paragraph v:spLine="-1"/><v:tabList/>Port</text>			</g>
			<g id="shape431-20" v:mID="431" v:groupContext="shape" transform="translate(156.712,-23.4)">
				<title>Sheet.431</title>
				<desc>Block port</desc>
				<v:textBlock v:margins="rect(4,0,2,4)"/>
				<v:textRect cx="26.0438" cy="70.6387" width="52.09" height="14.4"/>
				<rect x="0" y="63.4387" width="52.0875" height="14.4" class="st6"/>
				<text x="4" y="73.89" class="st7" v:langID="1033"><v:paragraph v:spLine="-1"/><v:tabList/>Block port</text>			</g>
			<g id="group432-23" transform="translate(128.925,-44.775)" v:mID="432" v:groupContext="group">
				<title>Sheet.432</title>
				<desc>2</desc>
				<g id="shape433-24" v:mID="433" v:groupContext="shape">
					<title>Sheet.433</title>
					<path d="M12.26 76.07 L12.26 64.98 A7.425 7.3125 -180 1 0 12.26 76.07 Z" class="st3"/>
				</g>
				<g id="shape434-26" v:mID="434" v:groupContext="shape" transform="translate(12.2625,-1.76498)">
					<title>Sheet.434</title>
					<path d="M0 77.84 A7.425 7.3125 -180 0 0 0 66.74 L0 77.84 Z" class="st8"/>
				</g>
				<g id="shape432-28" v:mID="432" v:groupContext="groupContent">
					<v:textBlock v:margins="rect(4,4,2,4)"/>
					<v:textRect cx="6.13125" cy="70.5262" width="12.27" height="14.625"/>
					<text x="4" y="74.28" class="st9" v:langID="1033"><v:paragraph v:spLine="-1" v:horizAlign="1"/><v:tabList/>2</text>				</g>
			</g>
			<g id="group435-30" transform="translate(125.775,-19.8)" v:mID="435" v:groupContext="group">
				<title>Sheet.435</title>
				<desc>2</desc>
				<g id="shape436-31" v:mID="436" v:groupContext="shape" transform="translate(16.245,-5.44497)">
					<title>Sheet.436</title>
					<path d="M0 67.13 L0 77.84 L5.36 72.48 L0 67.13 Z" class="st8"/>
				</g>
				<g id="shape437-33" v:mID="437" v:groupContext="shape">
					<title>Sheet.437</title>
					<path d="M16.24 61.68 L10.8 56.24 L0 67.04 L10.8 77.84 L16.24 72.39 L16.24 61.68 Z" class="st3"/>
				</g>
				<g id="shape435-35" v:mID="435" v:groupContext="groupContent">
					<v:textBlock v:margins="rect(4,4,2,4)"/>
					<v:textRect cx="10.8" cy="67.0387" width="21.6" height="21.6"/>
					<text x="7.74" y="70.79" class="st9" v:langID="1033"><v:paragraph v:spLine="-1" v:horizAlign="1"/><v:tabList/>2</text>				</g>
			</g>
			<g id="group439-37" transform="translate(118.575,-5.175)" v:mID="439" v:groupContext="group">
				<title>Sheet.439</title>
				<g id="shape440-38" v:mID="440" v:groupContext="shape" transform="translate(14.4,-7.3125)">
					<title>Sheet.440</title>
					<path d="M0 77.84 L14.4 77.84" class="st10"/>
				</g>
				<g id="group441-41" v:mID="441" v:groupContext="group">
					<title>Sheet.441</title>
					<desc>2</desc>
					<g id="shape442-42" v:mID="442" v:groupContext="shape">
						<title>Sheet.442</title>
						<path d="M12.26 76.07 L12.26 64.98 A7.425 7.3125 -180 1 0 12.26 76.07 Z" class="st3"/>
					</g>
					<g id="shape443-44" v:mID="443" v:groupContext="shape" transform="translate(12.2625,-1.76498)">
						<title>Sheet.443</title>
						<path d="M0 77.84 A7.425 7.3125 -180 0 0 0 66.74 L0 77.84 Z" class="st8"/>
					</g>
					<g id="shape441-46" v:mID="441" v:groupContext="groupContent">
						<v:textBlock v:margins="rect(4,4,2,4)"/>
						<v:textRect cx="6.13125" cy="70.5262" width="12.27" height="14.625"/>
						<text x="4" y="74.28" class="st9" v:langID="1033"><v:paragraph v:spLine="-1" v:horizAlign="1"/><v:tabList/>2</text>					</g>
				</g>
				<g id="group444-48" transform="translate(21.6,1.42109E-14)" v:mID="444" v:groupContext="group">
					<title>Sheet.444</title>
					<desc>1</desc>
					<g id="shape445-49" v:mID="445" v:groupContext="shape">
						<title>Sheet.445</title>
						<path d="M12.26 76.07 L12.26 64.98 A7.425 7.3125 -180 1 0 12.26 76.07 Z" class="st3"/>
					</g>
					<g id="shape446-51" v:mID="446" v:groupContext="shape" transform="translate(12.2625,-1.76498)">
						<title>Sheet.446</title>
						<path d="M0 77.84 A7.425 7.3125 -180 0 0 0 66.74 L0 77.84 Z" class="st8"/>
					</g>
					<g id="shape444-53" v:mID="444" v:groupContext="groupContent">
						<v:textBlock v:margins="rect(4,4,2,4)"/>
						<v:textRect cx="6.13125" cy="70.5262" width="12.27" height="14.625"/>
						<text x="4" y="74.28" class="st9" v:langID="1033"><v:paragraph v:spLine="-1" v:horizAlign="1"/><v:tabList/>1</text>					</g>
				</g>
			</g>
			<g id="shape447-55" v:mID="447" v:groupContext="shape" transform="translate(156.712,-5.4)">
				<title>Sheet.447</title>
				<desc>Signal path</desc>
				<v:textBlock v:margins="rect(4,0,2,4)"/>
				<v:textRect cx="26.0438" cy="70.6387" width="52.09" height="14.4"/>
				<rect x="0" y="63.4387" width="52.0875" height="14.4" class="st6"/>
				<text x="4" y="73.89" class="st7" v:langID="1033"><v:paragraph v:spLine="-1"/><v:tabList/>Signal path</text>			</g>
			<g id="group452-58" transform="translate(3.6,-6.75)" v:mID="452" v:groupContext="group">
				<title>Sheet.452</title>
				<g id="shape323-59" v:mID="323" v:groupContext="shape" transform="translate(1.63125,1.42109E-14)">
					<title>Sheet.323</title>
					<path d="M0 77.84 L94.29 77.84" class="st11"/>
				</g>
				<g id="shape324-65" v:mID="324" v:groupContext="shape" transform="translate(-3.19744E-14,-0.45)">
					<title>Sheet.324</title>
					<desc>Signals flow in this direction</desc>
					<v:textBlock v:margins="rect(4,4,2,4)"/>
					<v:textRect cx="52.1437" cy="70.6387" width="104.29" height="14.4"/>
					<rect x="0" y="63.4387" width="104.288" height="14.4" class="st6"/>
					<text x="4" y="73.89" class="st13" v:langID="1033"><v:paragraph v:spLine="-1"/><v:tabList/>Signals flow in this direction</text>				</g>
			</g>
			<g id="shape453-68" v:mID="453" v:groupContext="groupContent">
				<v:textBlock v:margins="rect(4,4,2,4)"/>
			</g>
		</g>
		<g id="shape182-69" v:mID="182" v:groupContext="shape" transform="translate(146.04,-0.24)">
			<title>Sheet.182</title>
			<desc>EqualizerA</desc>
			<v:textBlock v:margins="rect(4,4,2,4)"/>
			<v:textRect cx="41.4" cy="67.0387" width="82.8" height="21.6"/>
			<rect x="0" y="56.2387" width="82.8" height="21.6" class="st6"/>
			<text x="12.98" y="70.79" class="st14" v:langID="1033"><v:paragraph v:spLine="-1" v:horizAlign="1"/><v:tabList/>EqualizerA</text>		</g>
		<g id="group585-72" transform="translate(0.24,-21.84)" v:mID="585" v:groupContext="group">
			<title>Sheet.585</title>
			<g id="shape161-73" v:mID="161" v:groupContext="shape" transform="translate(28.8,1.42109E-14)">
				<title>Sheet.161</title>
				<rect x="0" y="31.0387" width="309.6" height="46.8" rx="4.5" ry="4.5" class="st5"/>
			</g>
			<g id="shape294-75" v:mID="294" v:groupContext="shape" transform="translate(316.8,-23.4)">
				<title>Sheet.294</title>
				<path d="M0 77.84 L21.72 77.84" class="st10"/>
			</g>
			<g id="shape284-78" v:mID="284" v:groupContext="shape" transform="translate(266.4,-9)">
				<title>Sheet.284</title>
				<desc>Parametric equalizer</desc>
				<v:textBlock v:margins="rect(4,0,8,0)"/>
				<v:textRect cx="25.2" cy="63.4387" width="50.4" height="28.8"/>
				<rect x="0" y="49.0387" width="50.4" height="28.8" class="st4"/>
				<text x="5.38" y="57.94" class="st15" v:langID="1033"><v:paragraph v:spLine="-1.4" v:horizAlign="1"/><v:tabList/>Parametric <tspan
							x="8.56" dy="1.4em" class="st16">equalizer</tspan></text>			</g>
			<g id="shape283-82" v:mID="283" v:groupContext="shape" transform="translate(194.4,-9)">
				<title>Sheet.283</title>
				<desc>Parametric equalizer</desc>
				<v:textBlock v:margins="rect(4,0,8,0)"/>
				<v:textRect cx="25.2" cy="63.4387" width="50.4" height="28.8"/>
				<rect x="0" y="49.0387" width="50.4" height="28.8" class="st4"/>
				<text x="5.38" y="57.94" class="st15" v:langID="1033"><v:paragraph v:spLine="-1.4" v:horizAlign="1"/><v:tabList/>Parametric <tspan
							x="8.56" dy="1.4em" class="st16">equalizer</tspan></text>			</g>
			<g id="shape163-86" v:mID="163" v:groupContext="shape" transform="translate(50.4,-9)">
				<title>Sheet.163</title>
				<desc>Highpass filter</desc>
				<v:textBlock v:margins="rect(4,0,2,0)"/>
				<v:textRect cx="25.2" cy="63.4387" width="50.4" height="28.8"/>
				<rect x="0" y="49.0387" width="50.4" height="28.8" class="st4"/>
				<rect v:rectContext="textBkgnd" x="8.10791" y="54.1814" width="34.184" height="20.2574" class="st17"/>
				<text x="8.11" y="61.94" class="st15" v:langID="1033"><v:paragraph v:spLine="-1" v:horizAlign="1"/><v:tabList/>Highpass<v:newlineChar/><tspan
							x="17.45" dy="1em" class="st16">filter</tspan></text>			</g>
			<g id="shape165-91" v:mID="165" v:groupContext="shape" transform="translate(0,-17.8875)">
				<title>Sheet.165</title>
				<desc>in</desc>
				<v:textBlock v:margins="rect(4,4,2,4)"/>
				<v:textRect cx="9" cy="70.6387" width="18" height="14.4"/>
				<rect x="0" y="63.4387" width="18" height="14.4" class="st6"/>
				<text x="5.44" y="74.39" class="st9" v:langID="1033"><v:paragraph v:spLine="-1" v:horizAlign="2"/><v:tabList/>in</text>			</g>
			<g id="shape169-94" v:mID="169" v:groupContext="shape" transform="translate(122.4,-9)">
				<title>Sheet.169</title>
				<desc>Parametric equalizer</desc>
				<v:textBlock v:margins="rect(4,0,8,0)"/>
				<v:textRect cx="25.2" cy="63.4387" width="50.4" height="28.8"/>
				<rect x="0" y="49.0387" width="50.4" height="28.8" class="st4"/>
				<text x="5.38" y="57.94" class="st15" v:langID="1033"><v:paragraph v:spLine="-1.4" v:horizAlign="1"/><v:tabList/>Parametric <tspan
							x="8.56" dy="1.4em" class="st16">equalizer</tspan></text>			</g>
			<g id="shape218-98" v:mID="218" v:groupContext="shape" transform="translate(352.8,-16.2)">
				<title>Sheet.218</title>
				<desc>out</desc>
				<v:textBlock v:margins="rect(4,4,2,4)"/>
				<v:textRect cx="12.6" cy="70.6387" width="25.2" height="14.4"/>
				<rect x="0" y="63.4387" width="25.2" height="14.4" class="st6"/>
				<text x="4" y="74.39" class="st9" v:langID="1033"><v:paragraph v:spLine="-1"/><v:tabList/>out</text>			</g>
			<g id="group258-101" transform="translate(93.6,-16.0875)" v:mID="258" v:groupContext="group">
				<title>Sheet.258</title>
				<g id="shape251-102" v:mID="251" v:groupContext="shape" transform="translate(14.4,-7.3125)">
					<title>Sheet.251</title>
					<path d="M0 77.84 L14.4 77.84" class="st10"/>
				</g>
				<g id="group252-105" v:mID="252" v:groupContext="group">
					<title>Sheet.252</title>
					<desc>2</desc>
					<g id="shape253-106" v:mID="253" v:groupContext="shape">
						<title>Sheet.253</title>
						<path d="M12.26 76.07 L12.26 64.98 A7.425 7.3125 -180 1 0 12.26 76.07 Z" class="st3"/>
					</g>
					<g id="shape254-108" v:mID="254" v:groupContext="shape" transform="translate(12.2625,-1.76498)">
						<title>Sheet.254</title>
						<path d="M0 77.84 A7.425 7.3125 -180 0 0 0 66.74 L0 77.84 Z" class="st8"/>
					</g>
					<g id="shape252-110" v:mID="252" v:groupContext="groupContent">
						<v:textBlock v:margins="rect(4,4,2,4)"/>
						<v:textRect cx="6.13125" cy="70.5262" width="12.27" height="14.625"/>
						<text x="4" y="74.28" class="st9" v:langID="1033"><v:paragraph v:spLine="-1" v:horizAlign="1"/><v:tabList/>2</text>					</g>
				</g>
				<g id="group255-112" transform="translate(21.6,1.42109E-14)" v:mID="255" v:groupContext="group">
					<title>Sheet.255</title>
					<desc>1</desc>
					<g id="shape256-113" v:mID="256" v:groupContext="shape">
						<title>Sheet.256</title>
						<path d="M12.26 76.07 L12.26 64.98 A7.425 7.3125 -180 1 0 12.26 76.07 Z" class="st3"/>
					</g>
					<g id="shape257-115" v:mID="257" v:groupContext="shape" transform="translate(12.2625,-1.76498)">
						<title>Sheet.257</title>
						<path d="M0 77.84 A7.425 7.3125 -180 0 0 0 66.74 L0 77.84 Z" class="st8"/>
					</g>
					<g id="shape255-117" v:mID="255" v:groupContext="groupContent">
						<v:textBlock v:margins="rect(4,4,2,4)"/>
						<v:textRect cx="6.13125" cy="70.5262" width="12.27" height="14.625"/>
						<text x="4" y="74.28" class="st9" v:langID="1033"><v:paragraph v:spLine="-1" v:horizAlign="1"/><v:tabList/>1</text>					</g>
				</g>
			</g>
			<g id="group267-119" transform="translate(165.375,-16.0875)" v:mID="267" v:groupContext="group">
				<title>Sheet.267</title>
				<g id="shape268-120" v:mID="268" v:groupContext="shape" transform="translate(14.4,-7.3125)">
					<title>Sheet.268</title>
					<path d="M0 77.84 L14.4 77.84" class="st10"/>
				</g>
				<g id="group269-123" v:mID="269" v:groupContext="group">
					<title>Sheet.269</title>
					<desc>2</desc>
					<g id="shape270-124" v:mID="270" v:groupContext="shape">
						<title>Sheet.270</title>
						<path d="M12.26 76.07 L12.26 64.98 A7.425 7.3125 -180 1 0 12.26 76.07 Z" class="st3"/>
					</g>
					<g id="shape271-126" v:mID="271" v:groupContext="shape" transform="translate(12.2625,-1.76498)">
						<title>Sheet.271</title>
						<path d="M0 77.84 A7.425 7.3125 -180 0 0 0 66.74 L0 77.84 Z" class="st8"/>
					</g>
					<g id="shape269-128" v:mID="269" v:groupContext="groupContent">
						<v:textBlock v:margins="rect(4,4,2,4)"/>
						<v:textRect cx="6.13125" cy="70.5262" width="12.27" height="14.625"/>
						<text x="4" y="74.28" class="st9" v:langID="1033"><v:paragraph v:spLine="-1" v:horizAlign="1"/><v:tabList/>2</text>					</g>
				</g>
				<g id="group272-130" transform="translate(21.6,1.42109E-14)" v:mID="272" v:groupContext="group">
					<title>Sheet.272</title>
					<desc>1</desc>
					<g id="shape273-131" v:mID="273" v:groupContext="shape">
						<title>Sheet.273</title>
						<path d="M12.26 76.07 L12.26 64.98 A7.425 7.3125 -180 1 0 12.26 76.07 Z" class="st3"/>
					</g>
					<g id="shape274-133" v:mID="274" v:groupContext="shape" transform="translate(12.2625,-1.76498)">
						<title>Sheet.274</title>
						<path d="M0 77.84 A7.425 7.3125 -180 0 0 0 66.74 L0 77.84 Z" class="st8"/>
					</g>
					<g id="shape272-135" v:mID="272" v:groupContext="groupContent">
						<v:textBlock v:margins="rect(4,4,2,4)"/>
						<v:textRect cx="6.13125" cy="70.5262" width="12.27" height="14.625"/>
						<text x="4" y="74.28" class="st9" v:langID="1033"><v:paragraph v:spLine="-1" v:horizAlign="1"/><v:tabList/>1</text>					</g>
				</g>
			</g>
			<g id="group275-137" transform="translate(237.6,-16.0875)" v:mID="275" v:groupContext="group">
				<title>Sheet.275</title>
				<g id="shape276-138" v:mID="276" v:groupContext="shape" transform="translate(14.4,-7.3125)">
					<title>Sheet.276</title>
					<path d="M0 77.84 L14.4 77.84" class="st10"/>
				</g>
				<g id="group277-141" v:mID="277" v:groupContext="group">
					<title>Sheet.277</title>
					<desc>2</desc>
					<g id="shape278-142" v:mID="278" v:groupContext="shape">
						<title>Sheet.278</title>
						<path d="M12.26 76.07 L12.26 64.98 A7.425 7.3125 -180 1 0 12.26 76.07 Z" class="st3"/>
					</g>
					<g id="shape279-144" v:mID="279" v:groupContext="shape" transform="translate(12.2625,-1.76498)">
						<title>Sheet.279</title>
						<path d="M0 77.84 A7.425 7.3125 -180 0 0 0 66.74 L0 77.84 Z" class="st8"/>
					</g>
					<g id="shape277-146" v:mID="277" v:groupContext="groupContent">
						<v:textBlock v:margins="rect(4,4,2,4)"/>
						<v:textRect cx="6.13125" cy="70.5262" width="12.27" height="14.625"/>
						<text x="4" y="74.28" class="st9" v:langID="1033"><v:paragraph v:spLine="-1" v:horizAlign="1"/><v:tabList/>2</text>					</g>
				</g>
				<g id="group280-148" transform="translate(21.6,1.42109E-14)" v:mID="280" v:groupContext="group">
					<title>Sheet.280</title>
					<desc>1</desc>
					<g id="shape281-149" v:mID="281" v:groupContext="shape">
						<title>Sheet.281</title>
						<path d="M12.26 76.07 L12.26 64.98 A7.425 7.3125 -180 1 0 12.26 76.07 Z" class="st3"/>
					</g>
					<g id="shape282-151" v:mID="282" v:groupContext="shape" transform="translate(12.2625,-1.76498)">
						<title>Sheet.282</title>
						<path d="M0 77.84 A7.425 7.3125 -180 0 0 0 66.74 L0 77.84 Z" class="st8"/>
					</g>
					<g id="shape280-153" v:mID="280" v:groupContext="groupContent">
						<v:textBlock v:margins="rect(4,4,2,4)"/>
						<v:textRect cx="6.13125" cy="70.5262" width="12.27" height="14.625"/>
						<text x="4" y="74.28" class="st9" v:langID="1033"><v:paragraph v:spLine="-1" v:horizAlign="1"/><v:tabList/>1</text>					</g>
				</g>
			</g>
			<g id="shape162-155" v:mID="162" v:groupContext="shape" transform="translate(28.7395,-23.4)">
				<title>Sheet.162</title>
				<path d="M0 77.84 L21.66 77.84" class="st10"/>
			</g>
			<g id="group248-158" transform="translate(43.425,-16.2)" v:mID="248" v:groupContext="group">
				<title>Sheet.248</title>
				<desc>1</desc>
				<g id="shape249-159" v:mID="249" v:groupContext="shape">
					<title>Sheet.249</title>
					<path d="M11.89 76.1 L11.89 65.18 A7.2 7.2 -180 1 0 11.89 76.1 Z" class="st3"/>
				</g>
				<g id="shape250-161" v:mID="250" v:groupContext="shape" transform="translate(11.8909,-1.73782)">
					<title>Sheet.250</title>
					<path d="M0 77.84 A7.2 7.2 -180 0 0 0 66.91 L0 77.84 Z" class="st8"/>
				</g>
				<g id="shape248-163" v:mID="248" v:groupContext="groupContent">
					<v:textBlock v:margins="rect(4,4,2,4)"/>
					<v:textRect cx="5.94545" cy="70.6387" width="11.9" height="14.4"/>
					<text x="4" y="74.39" class="st9" v:langID="1033"><v:paragraph v:spLine="-1" v:horizAlign="1"/><v:tabList/>1</text>				</g>
			</g>
			<g id="shape287-165" v:mID="287" v:groupContext="shape" transform="translate(338.46,-23.4)">
				<title>Sheet.287</title>
				<path d="M0 77.84 L0.06 77.84" class="st10"/>
			</g>
			<g id="group291-168" transform="translate(309.15,-16.0875)" v:mID="291" v:groupContext="group">
				<title>Sheet.291</title>
				<desc>2</desc>
				<g id="shape292-169" v:mID="292" v:groupContext="shape">
					<title>Sheet.292</title>
					<path d="M12.26 76.07 L12.26 64.98 A7.425 7.3125 -180 1 0 12.26 76.07 Z" class="st3"/>
				</g>
				<g id="shape293-171" v:mID="293" v:groupContext="shape" transform="translate(12.2625,-1.76498)">
					<title>Sheet.293</title>
					<path d="M0 77.84 A7.425 7.3125 -180 0 0 0 66.74 L0 77.84 Z" class="st8"/>
				</g>
				<g id="shape291-173" v:mID="291" v:groupContext="groupContent">
					<v:textBlock v:margins="rect(4,4,2,4)"/>
					<v:textRect cx="6.13125" cy="70.5262" width="12.27" height="14.625"/>
					<text x="4" y="74.28" class="st9" v:langID="1033"><v:paragraph v:spLine="-1" v:horizAlign="1"/><v:tabList/>2</text>				</g>
			</g>
			<g id="group297-175" transform="translate(18,-12.6)" v:mID="297" v:groupContext="group">
				<title>Sheet.297</title>
				<desc>1</desc>
				<g id="shape298-176" v:mID="298" v:groupContext="shape" transform="translate(16.245,-5.44497)">
					<title>Sheet.298</title>
					<path d="M0 67.13 L0 77.84 L5.36 72.48 L0 67.13 Z" class="st8"/>
				</g>
				<g id="shape299-178" v:mID="299" v:groupContext="shape">
					<title>Sheet.299</title>
					<path d="M16.24 61.68 L10.8 56.24 L0 67.04 L10.8 77.84 L16.24 72.39 L16.24 61.68 Z" class="st3"/>
				</g>
				<g id="shape297-180" v:mID="297" v:groupContext="groupContent">
					<v:textBlock v:margins="rect(4,4,2,4)"/>
					<v:textRect cx="10.8" cy="67.0387" width="21.6" height="21.6"/>
					<text x="7.74" y="70.79" class="st9" v:langID="1033"><v:paragraph v:spLine="-1" v:horizAlign="1"/><v:tabList/>1</text>				</g>
			</g>
			<g id="group303-182" transform="translate(327.6,-12.6)" v:mID="303" v:groupContext="group">
				<title>Sheet.303</title>
				<desc>2</desc>
				<g id="shape304-183" v:mID="304" v:groupContext="shape" transform="translate(16.245,-5.44497)">
					<title>Sheet.304</title>
					<path d="M0 67.13 L0 77.84 L5.36 72.48 L0 67.13 Z" class="st8"/>
				</g>
				<g id="shape305-185" v:mID="305" v:groupContext="shape">
					<title>Sheet.305</title>
					<path d="M16.24 61.68 L10.8 56.24 L0 67.04 L10.8 77.84 L16.24 72.39 L16.24 61.68 Z" class="st3"/>
				</g>
				<g id="shape303-187" v:mID="303" v:groupContext="groupContent">
					<v:textBlock v:margins="rect(4,4,2,4)"/>
					<v:textRect cx="10.8" cy="67.0387" width="21.6" height="21.6"/>
					<text x="7.74" y="70.79" class="st9" v:langID="1033"><v:paragraph v:spLine="-1" v:horizAlign="1"/><v:tabList/>2</text>				</g>
			</g>
		</g>
	</g>
</svg>
