<?xml version="1.0" encoding="UTF-8" standalone="no"?>
<!DOCTYPE svg PUBLIC "-//W3C//DTD SVG 1.1//EN" "http://www.w3.org/Graphics/SVG/1.1/DTD/svg11.dtd">
<!-- Generated by Microsoft Visio, SVG Export Figure-1.svg Page-1 -->
<svg xmlns="http://www.w3.org/2000/svg" xmlns:xlink="http://www.w3.org/1999/xlink" xmlns:ev="http://www.w3.org/2001/xml-events"
		xmlns:v="http://schemas.microsoft.com/visio/2003/SVGExtensions/" width="5.05057in" height="5.71722in"
		viewBox="0 0 363.641 411.64" xml:space="preserve" color-interpolation-filters="sRGB" class="st32">
	<v:documentProperties v:langID="1033" v:viewMarkup="false">
		<v:userDefs>
			<v:ud v:nameU="msvConvertTheme"/>
		</v:userDefs>
	</v:documentProperties>

	<style type="text/css">
	<![CDATA[
		.st1 {fill:#ddd6e5;stroke:#7e649e;stroke-dasharray:2,1;stroke-linecap:butt;stroke-width:1}
		.st2 {fill:#c00000;font-family:Arial Narrow;font-size:1.00001em;font-weight:bold}
		.st3 {font-size:1em}
		.st4 {fill:#d7e3bf;stroke:#008000;stroke-dasharray:2,1;stroke-linecap:butt;stroke-width:1}
		.st5 {fill:#008000;font-family:Arial Narrow;font-size:1.00001em;font-weight:bold}
		.st6 {fill:#f2dcda;stroke:#ff0000;stroke-dasharray:2,1;stroke-linecap:butt;stroke-width:1}
		.st7 {fill:#d5dfeb;stroke:#0000ff;stroke-dasharray:2,1;stroke-linecap:butt;stroke-width:1}
		.st8 {fill:#0000ff;font-family:Arial Narrow;font-size:1.00001em;font-weight:bold}
		.st9 {stroke:#000000;stroke-linecap:round;stroke-linejoin:round;stroke-width:1}
		.st10 {fill:#ffffff;stroke:#000000;stroke-linecap:butt;stroke-width:0.24}
		.st11 {fill:#2020ff;font-family:Arial Narrow;font-size:0.833336em;font-style:italic}
		.st12 {visibility:visible}
		.st13 {fill:#000000;fill-opacity:0.4;filter:url(#filter_2.6666667461395);stroke:#000000;stroke-linecap:butt;stroke-opacity:0.4}
		.st14 {fill:#ffffcc;stroke:#000000;stroke-linecap:butt;stroke-width:0.24}
		.st15 {fill:#000000;font-family:Arial Narrow;font-size:0.833336em}
		.st16 {fill:#ccffff;stroke:#000000;stroke-linecap:butt;stroke-width:0.24}
		.st17 {fill:#000000;font-family:Arial Narrow;font-size:1.00001em}
		.st18 {fill:none;stroke:none;stroke-linecap:butt;stroke-width:0.24}
		.st19 {fill:#2020ff;font-family:Rockwell;font-size:0.75em;font-style:italic}
		.st20 {marker-start:url(#mrkr14-47);stroke:#000000;stroke-linecap:butt;stroke-width:1}
		.st21 {fill:#000000;fill-opacity:1;stroke:#000000;stroke-opacity:1;stroke-width:0.28409090909091}
		.st22 {marker-start:url(#mrkr14-47);stroke:#000000;stroke-linecap:round;stroke-linejoin:round;stroke-width:1}
		.st23 {fill:#000000;font-family:Arial;font-size:0.916672em;font-weight:bold}
		.st24 {fill:#2020ff;font-family:Rockwell;font-size:1.00001em;font-style:italic}
		.st25 {fill:#d8d8d8;stroke:#000000;stroke-linecap:butt;stroke-width:0.24}
		.st26 {fill:#000000;font-family:Arial;font-size:0.833336em;font-weight:bold}
		.st27 {marker-start:url(#mrkr14-118);stroke:#000000;stroke-linecap:round;stroke-linejoin:round;stroke-width:1.5}
		.st28 {fill:#000000;fill-opacity:1;stroke:#000000;stroke-opacity:1;stroke-width:0.37313432835821}
		.st29 {fill:#000000;font-family:Arial Narrow;font-size:1.16666em}
		.st30 {fill:#2020ff;font-family:Rockwell;font-size:0.833336em;font-style:italic}
		.st31 {fill:#000000;font-family:Arial Narrow;font-size:0.916672em}
		.st32 {fill:none;fill-rule:evenodd;font-size:12px;overflow:visible;stroke-linecap:square;stroke-miterlimit:3}
	]]>
	</style>

	<defs id="Markers">
		<g id="lend14">
			<path d="M 3 -1 L 0 0 L 3 1 L 3 -1 " style="stroke-linecap:round;stroke-linejoin:round;fill:none"/>
		</g>
		<marker id="mrkr14-47" class="st21" v:arrowType="14" v:arrowSize="2" v:setback="10.2" refX="10.2" orient="auto"
				markerUnits="strokeWidth" overflow="visible">
			<use xlink:href="#lend14" transform="scale(3.52) "/>
		</marker>
		<marker id="mrkr14-118" class="st28" v:arrowType="14" v:arrowSize="2" v:setback="7.8" refX="7.8" orient="auto"
				markerUnits="strokeWidth" overflow="visible">
			<use xlink:href="#lend14" transform="scale(2.68) "/>
		</marker>
	</defs>
	<defs id="Filters">
		<filter id="filter_2.6666667461395">
			<feGaussianBlur stdDeviation="2.6666667461395"/>
		</filter>
	</defs>
	<g v:mID="0" v:index="1" v:groupContext="foregroundPage">
		<title>Page-1</title>
		<v:pageProperties v:drawingScale="1" v:pageScale="1" v:drawingUnits="19" v:shadowOffsetX="9" v:shadowOffsetY="-9"/>
		<g id="group358-1" transform="translate(1,-1)" v:mID="358" v:groupContext="group">
			<title>Sheet.358</title>
			<g id="shape348-2" v:mID="348" v:groupContext="shape" transform="translate(241.2,0)">
				<title>Sheet.348</title>
				<desc>Workflow data classes</desc>
				<v:textBlock v:margins="rect(4,4,2,4)" v:verticalAlign="2"/>
				<v:textRect cx="28.8" cy="240.64" width="57.6" height="342"/>
				<path d="M0 411.64 L57.6 411.64 L57.6 69.64 L0 69.64 L0 411.64 Z" class="st1"/>
				<text x="6.66" y="388.04" class="st2" v:langID="1033"><v:paragraph v:spLine="-0.8" v:horizAlign="1"/><v:tabList/>Workflow <tspan
							x="18.68" dy="0.8em" class="st3">data </tspan><tspan x="11.01" dy="0.8em" class="st3">classes</tspan></text>			</g>
			<g id="shape340-7" v:mID="340" v:groupContext="shape">
				<title>Sheet.340</title>
				<desc>Structuring class</desc>
				<v:textBlock v:margins="rect(4,4,2,4)" v:verticalAlign="2"/>
				<v:textRect cx="32.4" cy="240.64" width="64.8" height="342"/>
				<path d="M0 69.64 L0 411.64 L64.8 411.64 L64.8 69.64 L0 69.64 Z" class="st4"/>
				<text x="5.89" y="397.64" class="st5" v:langID="1033"><v:paragraph v:spLine="-0.8" v:horizAlign="1"/><v:tabList/>Structuring <tspan
							x="20.09" dy="0.8em" class="st3">class</tspan></text>			</g>
			<g id="shape316-11" v:mID="316" v:groupContext="shape" transform="translate(302.4,0)">
				<title>Sheet.316</title>
				<desc>House-keeping classes</desc>
				<v:textBlock v:margins="rect(4,4,2,4)" v:verticalAlign="2"/>
				<v:textRect cx="28.8" cy="240.64" width="57.6" height="342"/>
				<path d="M0 411.64 L57.6 411.64 L57.6 69.64 L0 69.64 L0 411.64 Z" class="st6"/>
				<text x="12.13" y="388.04" class="st2" v:langID="1033"><v:paragraph v:spLine="-0.8" v:horizAlign="1"/><v:tabList/>House-<tspan
							x="10.21" dy="0.8em" class="st3">keeping </tspan><tspan x="11.01" dy="0.8em" class="st3">classes</tspan></text>			</g>
			<g id="shape310-16" v:mID="310" v:groupContext="shape" transform="translate(64.8,0)">
				<title>Sheet.310</title>
				<desc>Application functionality classes</desc>
				<v:textBlock v:margins="rect(4,4,2,4)" v:verticalAlign="2"/>
				<v:textRect cx="86.4" cy="240.64" width="172.8" height="342"/>
				<path d="M0 411.64 L172.8 411.64 L172.8 69.64 L0 69.64 L0 411.64 Z" class="st7"/>
				<text x="9.84" y="406.64" class="st8" v:langID="1033"><v:paragraph v:spLine="-1" v:horizAlign="1"/><v:tabList/>Application functionality classes</text>			</g>
			<g id="shape309-19" v:mID="309" v:groupContext="shape" transform="translate(331.2,495.68) rotate(180)">
				<title>Sheet.309</title>
				<path d="M0 411.64 L298.8 411.64" class="st9"/>
			</g>
			<g id="shape206-22" v:mID="206" v:groupContext="shape" transform="translate(306,-180)">
				<title>Sheet.206</title>
				<desc>a few simple classes</desc>
				<v:textBlock v:margins="rect(4,4,2,4)"/>
				<v:textRect cx="25.2" cy="379.24" width="50.4" height="64.8"/>
				<rect x="0" y="346.84" width="50.4" height="64.8" class="st10"/>
				<text x="15.4" y="372.74" class="st11" v:langID="1033"><v:paragraph v:spLine="-1" v:horizAlign="1"/><v:tabList/>a few <tspan
							x="13.35" dy="1em" class="st3">simple<v:newlineChar/></tspan><tspan x="11.53" dy="1em" class="st3">classes</tspan></text>			</g>
			<g id="shape245-27" v:mID="245" v:groupContext="shape" transform="translate(306,-43.2)">
				<title>2d Balloon.245</title>
				<desc>Singleton house-keeping classes</desc>
				<v:textBlock v:margins="rect(4,2,2,2)"/>
				<v:textRect cx="25.2" cy="382.84" width="50.4" height="57.6"/>
				<g id="shadow245-28" v:groupContext="shadow" v:shadowOffsetX="2.12132" v:shadowOffsetY="-2.12132" v:shadowType="1"
						transform="matrix(1,0,0,1,2.12132,2.12132)" class="st12">
					<path d="M0 379.24 L0 354.04 L21.6 354.04 L25.2 274.84 L28.8 354.04 L50.4 354.04 L50.4 379.24 L50.4 382.84 L50.4
								 386.44 L50.4 411.64 L28.8 411.64 L25.2 411.64 L21.6 411.64 L0 411.64 L0 386.44 L0 382.84 L0 379.24
								 Z" class="st13"/>
				</g>
				<path d="M0 379.24 L0 354.04 L21.6 354.04 L25.2 274.84 L28.8 354.04 L50.4 354.04 L50.4 379.24 L50.4 382.84 L50.4
							 386.44 L50.4 411.64 L28.8 411.64 L25.2 411.64 L21.6 411.64 L0 411.64 L0 386.44 L0 382.84 L0 379.24 Z"
						class="st14"/>
				<text x="8.1" y="371.34" class="st15" v:langID="1033"><v:paragraph v:spLine="-1" v:horizAlign="1"/><v:tabList/>Singleton <tspan
							x="12.66" dy="1em" class="st3">house</tspan>-<tspan x="10.84" dy="1em" class="st3">keeping </tspan><tspan
							x="11.53" dy="1em" class="st3">classes</tspan></text>			</g>
			<g id="shape208-36" v:mID="208" v:groupContext="shape" transform="translate(306,-273.6)">
				<title>Sheet.208</title>
				<desc>Managers</desc>
				<v:textBlock v:margins="rect(10,0,0,0)" v:verticalAlign="0"/>
				<v:textRect cx="25.2" cy="390.04" width="50.4" height="43.2"/>
				<rect x="0" y="368.44" width="50.4" height="43.2" class="st16"/>
				<text x="3.32" y="387.44" class="st17" v:langID="1033"><v:paragraph v:spLine="-1" v:horizAlign="1"/><v:tabList/>Managers</text>			</g>
			<g id="shape209-39" v:mID="209" v:groupContext="shape" transform="translate(306,-273.6)">
				<title>Sheet.209</title>
				<desc>nc Manager</desc>
				<v:textBlock v:margins="rect(4,0,2,0)"/>
				<v:textRect cx="25.2" cy="402.64" width="50.4" height="18"/>
				<rect x="0" y="393.64" width="50.4" height="18" class="st18"/>
				<text x="1.35" y="405.89" class="st19" v:langID="1033"><v:paragraph v:spLine="-1" v:horizAlign="1"/><v:tabList/>nc Manager</text>			</g>
			<g id="shape300-42" v:mID="300" v:groupContext="shape" transform="translate(742.84,138.04) rotate(90)">
				<title>Sheet.300</title>
				<path d="M10.2 411.64 L10.56 411.64 L28.8 411.64" class="st20"/>
			</g>
			<g id="shape307-48" v:mID="307" v:groupContext="shape" transform="translate(742.84,84.04) rotate(90)">
				<title>Sheet.307</title>
				<path d="M0 411.64 L10.8 411.64" class="st9"/>
			</g>
			<g id="shape215-51" v:mID="215" v:groupContext="shape" transform="translate(534.04,33.64) rotate(90)">
				<title>Sheet.215</title>
				<path d="M10.2 411.64 L10.56 411.64 L49.74 411.64" class="st22"/>
			</g>
			<g id="shape2-56" v:mID="2" v:groupContext="shape" transform="translate(79.2,-374.4)">
				<title>Sheet.2</title>
				<desc>Base Class</desc>
				<v:textBlock v:margins="rect(0,0,4,0)"/>
				<v:textRect cx="43.2" cy="393.64" width="86.4" height="36"/>
				<rect x="0" y="375.64" width="86.4" height="36" class="st16"/>
				<text x="13.85" y="394.39" class="st23" v:langID="1033"><v:paragraph v:spLine="-1" v:horizAlign="1"/><v:tabList/>Base Class</text>			</g>
			<g id="shape129-59" v:mID="129" v:groupContext="shape" transform="translate(79.2,-374.4)">
				<title>Sheet.129</title>
				<desc>ncObject</desc>
				<v:textBlock v:margins="rect(4,8,2,4)"/>
				<v:textRect cx="43.2" cy="404.44" width="86.4" height="14.4"/>
				<rect x="0" y="397.24" width="86.4" height="14.4" class="st18"/>
				<text x="16.77" y="408.44" class="st24" v:langID="1033"><v:paragraph v:spLine="-1" v:horizAlign="1"/><v:tabList/>ncObject</text>			</g>
			<g id="shape342-62" v:mID="342" v:groupContext="shape" transform="translate(681.64,84.04) rotate(90)">
				<title>Sheet.342</title>
				<path d="M0 411.64 L10.8 411.64" class="st9"/>
			</g>
			<g id="shape343-65" v:mID="343" v:groupContext="shape" transform="translate(244.8,-180)">
				<title>Sheet.343</title>
				<desc>subclasses for different categories of workflow data details ...</desc>
				<v:textBlock v:margins="rect(4,4,2,4)"/>
				<v:textRect cx="25.2" cy="379.24" width="50.4" height="64.8"/>
				<rect x="0" y="346.84" width="50.4" height="64.8" class="st10"/>
				<text x="4.92" y="357.74" class="st11" v:langID="1033"><v:paragraph v:spLine="-1" v:horizAlign="1"/><v:tabList/>subclasses <tspan
							x="4.46" dy="1em" class="st3">for different </tspan><tspan x="6.28" dy="1em" class="st3">categories </tspan><tspan
							x="4.7" dy="1em" class="st3">of workflow </tspan><tspan x="17.22" dy="1em" class="st3">data<v:newlineChar/></tspan><tspan
							x="4.01" dy="1em" class="st3">details TBD</tspan></text>			</g>
			<g id="shape344-73" v:mID="344" v:groupContext="shape" transform="translate(244.8,-273.6)">
				<title>Sheet.344</title>
				<desc>Workflow</desc>
				<v:textBlock v:margins="rect(6,0,0,0)" v:verticalAlign="0"/>
				<v:textRect cx="25.2" cy="390.04" width="50.4" height="43.2"/>
				<rect x="0" y="368.44" width="50.4" height="43.2" class="st16"/>
				<text x="4.97" y="383.44" class="st17" v:langID="1033"><v:paragraph v:spLine="-1" v:horizAlign="1"/><v:tabList/>Workflow</text>			</g>
			<g id="shape345-76" v:mID="345" v:groupContext="shape" transform="translate(244.8,-273.6)">
				<title>Sheet.345</title>
				<desc>nc Workflow Data</desc>
				<v:textBlock v:margins="rect(4,0,2,0)"/>
				<v:textRect cx="25.2" cy="399.04" width="50.4" height="25.2"/>
				<rect x="0" y="386.44" width="50.4" height="25.2" class="st18"/>
				<text x="20.47" y="393.97" class="st19" v:langID="1033"><v:paragraph v:spLine="-0.9" v:horizAlign="1"/><v:tabList/>nc <tspan
							x="5.69" dy="0.9em" class="st3">Workflow </tspan><tspan x="15.92" dy="0.9em" class="st3">Data</tspan></text>			</g>
			<g id="shape346-81" v:mID="346" v:groupContext="shape" transform="translate(681.64,138.04) rotate(90)">
				<title>Sheet.346</title>
				<path d="M10.2 411.64 L10.56 411.64 L28.8 411.64" class="st20"/>
			</g>
			<g id="shape347-86" v:mID="347" v:groupContext="shape" transform="translate(244.8,-43.2)">
				<title>2d Balloon.347</title>
				<desc>Classes for transmission and storage of workflow data</desc>
				<v:textBlock v:margins="rect(4,2,2,2)"/>
				<v:textRect cx="25.2" cy="382.84" width="50.4" height="57.6"/>
				<g id="shadow347-87" v:groupContext="shadow" v:shadowOffsetX="2.12132" v:shadowOffsetY="-2.12132" v:shadowType="1"
						transform="matrix(1,0,0,1,2.12132,2.12132)" class="st12">
					<path d="M0 379.24 L0 354.04 L21.6 354.04 L25.2 274.84 L28.8 354.04 L50.4 354.04 L50.4 379.24 L50.4 382.84 L50.4
								 386.44 L50.4 411.64 L28.8 411.64 L25.2 411.64 L21.6 411.64 L0 411.64 L0 386.44 L0 382.84 L0 379.24
								 Z" class="st13"/>
				</g>
				<path d="M0 379.24 L0 354.04 L21.6 354.04 L25.2 274.84 L28.8 354.04 L50.4 354.04 L50.4 379.24 L50.4 382.84 L50.4
							 386.44 L50.4 411.64 L28.8 411.64 L25.2 411.64 L21.6 411.64 L0 411.64 L0 386.44 L0 382.84 L0 379.24 Z"
						class="st14"/>
				<text x="4.69" y="366.34" class="st15" v:langID="1033"><v:paragraph v:spLine="-1" v:horizAlign="1"/><v:tabList/>Classes for <tspan
							x="2.19" dy="1em" class="st3">transmission </tspan><tspan x="3.54" dy="1em" class="st3">and storage </tspan><tspan
							x="4.69" dy="1em" class="st3">of workflow </tspan><tspan x="17.22" dy="1em" class="st3">data</tspan></text>			</g>
			<g id="group349-96" transform="translate(205.2,-349.2)" v:mID="349" v:groupContext="group">
				<title>Sheet.349</title>
				<g id="shape291-97" v:mID="291" v:groupContext="shape">
					<title>Sheet.291</title>
					<desc>LEGEND</desc>
					<v:textBlock v:margins="rect(4,4,2,4)" v:verticalAlign="0"/>
					<v:textRect cx="77.4" cy="381.04" width="154.8" height="61.2"/>
					<rect x="0" y="350.44" width="154.8" height="61.2" class="st25"/>
					<text x="56.57" y="361.94" class="st26" v:langID="1033"><v:paragraph v:spLine="-1" v:horizAlign="1"/><v:tabList/>LEGEND</text>				</g>
				<g id="group329-100" transform="translate(3.6,-33.75)" v:mID="329" v:groupContext="group">
					<title>Sheet.329</title>
					<g id="shape286-101" v:mID="286" v:groupContext="shape">
						<title>Sheet.286</title>
						<rect x="0" y="397.24" width="28.8" height="14.4" class="st16"/>
					</g>
					<g id="shape288-103" v:mID="288" v:groupContext="shape" transform="translate(28.8,0)">
						<title>Sheet.288</title>
						<desc>Category (= subtree)</desc>
						<v:textBlock v:margins="rect(4,4,2,4)"/>
						<v:textRect cx="58.6125" cy="404.44" width="117.23" height="14.4"/>
						<rect x="0" y="397.24" width="117.225" height="14.4" class="st18"/>
						<text x="4" y="407.94" class="st15" v:langID="1033"><v:paragraph v:spLine="-1"/><v:tabList/>Category (= subtree)</text>					</g>
				</g>
				<g id="group330-106" transform="translate(3.6,-15.975)" v:mID="330" v:groupContext="group">
					<title>Sheet.330</title>
					<g id="shape289-107" v:mID="289" v:groupContext="shape">
						<title>Sheet.289</title>
						<rect x="0" y="397.24" width="28.8" height="14.4" class="st10"/>
					</g>
					<g id="shape290-109" v:mID="290" v:groupContext="shape" transform="translate(28.8,0)">
						<title>Sheet.290</title>
						<desc>Class</desc>
						<v:textBlock v:margins="rect(4,4,2,4)"/>
						<v:textRect cx="59.4" cy="404.44" width="118.81" height="14.4"/>
						<rect x="0" y="397.24" width="118.8" height="14.4" class="st18"/>
						<text x="4" y="407.94" class="st15" v:langID="1033"><v:paragraph v:spLine="-1"/><v:tabList/>Class</text>					</g>
				</g>
				<g id="group331-112" transform="translate(9,-1.575)" v:mID="331" v:groupContext="group">
					<title>Sheet.331</title>
					<g id="shape324-113" v:mID="324" v:groupContext="shape" transform="translate(-2.53139E-11,816.08) scale(1,-1)">
						<title>Sheet.324</title>
						<path d="M11.7 411.64 L12.06 411.64 L28.8 411.64" class="st27"/>
					</g>
					<g id="shape325-119" v:mID="325" v:groupContext="shape" transform="translate(28.8,0)">
						<title>Sheet.325</title>
						<desc>Inheritance (points to parent)</desc>
						<v:textBlock v:margins="rect(4,4,2,4)"/>
						<v:textRect cx="58.5" cy="404.44" width="117" height="14.4"/>
						<rect x="0" y="397.24" width="117" height="14.4" class="st18"/>
						<text x="4" y="407.94" class="st15" v:langID="1033"><v:paragraph v:spLine="-1"/><v:tabList/>Inheritance (points to parent)</text>					</g>
				</g>
			</g>
			<g id="group351-122" transform="translate(180,-43.2)" v:mID="351" v:groupContext="group">
				<title>Sheet.351</title>
				<g id="shape227-123" v:mID="227" v:groupContext="shape" transform="translate(436.84,127.24) rotate(90)">
					<title>Sheet.227</title>
					<path d="M0 411.64 L10.8 411.64" class="st9"/>
				</g>
				<g id="shape204-126" v:mID="204" v:groupContext="shape" transform="translate(0,-136.8)">
					<title>Sheet.204</title>
					<desc>a modest number of non-signal-processingclasses</desc>
					<v:textBlock v:margins="rect(4,4,2,4)"/>
					<v:textRect cx="25.2" cy="379.24" width="50.4" height="64.8"/>
					<rect x="0" y="346.84" width="50.4" height="64.8" class="st10"/>
					<text x="8.33" y="362.74" class="st11" v:langID="1033"><v:paragraph v:spLine="-1" v:horizAlign="1"/><v:tabList/>a modest <tspan
								x="6.74" dy="1em" class="st3">number of </tspan><tspan x="4.92" dy="1em" class="st3">non</tspan>-signal-<tspan
								x="5.37" dy="1em" class="st3">processing</tspan><tspan x="11.53" dy="1em" class="st3">classes</tspan></text>				</g>
				<g id="shape22-133" v:mID="22" v:groupContext="shape" transform="translate(0,-230.4)">
					<title>Sheet.22</title>
					<desc>Agents</desc>
					<v:textBlock v:margins="rect(0,0,2,0)"/>
					<v:textRect cx="25.2" cy="390.04" width="50.4" height="43.2"/>
					<rect x="0" y="368.44" width="50.4" height="43.2" class="st16"/>
					<text x="7.33" y="392.54" class="st29" v:langID="1033"><v:paragraph v:spLine="-1" v:horizAlign="1"/><v:tabList/>Agents</text>				</g>
				<g id="shape140-136" v:mID="140" v:groupContext="shape" transform="translate(0,-230.4)">
					<title>Sheet.140</title>
					<desc>ncAgent</desc>
					<v:textBlock v:margins="rect(4,0,2,0)"/>
					<v:textRect cx="25.2" cy="404.44" width="50.4" height="14.4"/>
					<rect x="0" y="397.24" width="50.4" height="14.4" class="st18"/>
					<text x="6.71" y="407.94" class="st30" v:langID="1033"><v:paragraph v:spLine="-1" v:horizAlign="1"/><v:tabList/>ncAgent</text>				</g>
				<g id="shape236-139" v:mID="236" v:groupContext="shape" transform="translate(436.84,181.24) rotate(90)">
					<title>Sheet.236</title>
					<path d="M10.2 411.64 L10.56 411.64 L28.8 411.64" class="st20"/>
				</g>
				<g id="shape244-144" v:mID="244" v:groupContext="shape">
					<title>2d Balloon.244</title>
					<desc>Classes that affect control or other device features</desc>
					<v:textBlock v:margins="rect(4,2,2,2)"/>
					<v:textRect cx="25.2" cy="382.84" width="50.4" height="57.6"/>
					<g id="shadow244-145" v:groupContext="shadow" v:shadowOffsetX="2.12132" v:shadowOffsetY="-2.12132"
							v:shadowType="1" transform="matrix(1,0,0,1,2.12132,2.12132)" class="st12">
						<path d="M0 379.24 L0 354.04 L21.6 354.04 L25.2 274.84 L28.8 354.04 L50.4 354.04 L50.4 379.24 L50.4 382.84
									 L50.4 386.44 L50.4 411.64 L28.8 411.64 L25.2 411.64 L21.6 411.64 L0 411.64 L0 386.44 L0 382.84
									 L0 379.24 Z" class="st13"/>
					</g>
					<path d="M0 379.24 L0 354.04 L21.6 354.04 L25.2 274.84 L28.8 354.04 L50.4 354.04 L50.4 379.24 L50.4 382.84 L50.4
								 386.44 L50.4 411.64 L28.8 411.64 L25.2 411.64 L21.6 411.64 L0 411.64 L0 386.44 L0 382.84 L0 379.24
								 Z" class="st14"/>
					<text x="2.64" y="366.34" class="st15" v:langID="1033"><v:paragraph v:spLine="-1" v:horizAlign="1"/><v:tabList/>Classes that <tspan
								x="15.17" dy="1em" class="st3">affect </tspan><tspan x="8.11" dy="1em" class="st3">control or </tspan><tspan
								x="2.86" dy="1em" class="st3">other device </tspan><tspan x="10.38" dy="1em" class="st3">features</tspan></text>				</g>
			</g>
			<g id="group354-154" transform="translate(7.2,-44.0229)" v:mID="354" v:groupContext="group">
				<title>Sheet.354</title>
				<g id="shape232-155" v:mID="232" v:groupContext="shape" transform="translate(436.84,128.063) rotate(90)">
					<title>Sheet.232</title>
					<path d="M0 411.64 L10.8 411.64" class="st9"/>
				</g>
				<g id="shape318-158" v:mID="318" v:groupContext="shape" transform="translate(0,-229.577)">
					<title>Sheet.318</title>
					<desc>Blocks</desc>
					<v:textBlock v:margins="rect(0,0,2,0)"/>
					<v:textRect cx="25.2" cy="390.04" width="50.4" height="43.2"/>
					<rect x="0" y="368.44" width="50.4" height="43.2" class="st16"/>
					<text x="10.71" y="392.04" class="st17" v:langID="1033"><v:paragraph v:spLine="-1" v:horizAlign="1"/><v:tabList/>Blocks</text>				</g>
				<g id="shape319-161" v:mID="319" v:groupContext="shape" transform="translate(0,-229.577)">
					<title>Sheet.319</title>
					<desc>ncBlock</desc>
					<v:textBlock v:margins="rect(4,0,2,0)"/>
					<v:textRect cx="25.2" cy="404.44" width="50.4" height="14.4"/>
					<rect x="0" y="397.24" width="50.4" height="14.4" class="st18"/>
					<text x="7.8" y="407.94" class="st30" v:langID="1033"><v:paragraph v:spLine="-1" v:horizAlign="1"/><v:tabList/>ncBlock</text>				</g>
				<g id="shape240-164" v:mID="240" v:groupContext="shape">
					<title>2d Balloon.240</title>
					<desc>Container class that supports grouping and discovery of a Dev...</desc>
					<v:textBlock v:margins="rect(4,0,2,0)"/>
					<v:textRect cx="25.2" cy="361.24" width="50.4" height="100.8"/>
					<g id="shadow240-165" v:groupContext="shadow" v:shadowOffsetX="2.12132" v:shadowOffsetY="-2.12132"
							v:shadowType="1" transform="matrix(1,0,0,1,2.12132,2.12132)" class="st12">
						<path d="M0 357.64 L0 310.84 L21.6 310.84 L25.2 182.06 L28.8 310.84 L50.4 310.84 L50.4 357.64 L50.4 361.24
									 L50.4 364.84 L50.4 411.64 L28.8 411.64 L25.2 411.64 L21.6 411.64 L0 411.64 L0 364.84 L0 361.24
									 L0 357.64 Z" class="st13"/>
					</g>
					<path d="M0 357.64 L0 310.84 L21.6 310.84 L25.2 182.06 L28.8 310.84 L50.4 310.84 L50.4 357.64 L50.4 361.24 L50.4
								 364.84 L50.4 411.64 L28.8 411.64 L25.2 411.64 L21.6 411.64 L0 411.64 L0 364.84 L0 361.24 L0 357.64
								 Z" class="st14"/>
					<text x="7.42" y="334.74" class="st15" v:langID="1033"><v:paragraph v:spLine="-1" v:horizAlign="1"/><v:tabList/>Container <tspan
								x="7.88" dy="1em" class="st3">class that </tspan><tspan x="9.47" dy="1em" class="st3">supports </tspan><tspan
								x="1.26" dy="1em" class="st3">grouping and </tspan><tspan x="3.32" dy="1em" class="st3">discovery of </tspan><tspan
								x="6.41" dy="1em" class="st3">a Device&#39;s </tspan><tspan x="12.21" dy="1em" class="st3">objects</tspan></text>				</g>
			</g>
			<g id="group357-176" transform="translate(70.0875,-43.2)" v:mID="357" v:groupContext="group">
				<title>Sheet.357</title>
				<g id="shape18-177" v:mID="18" v:groupContext="shape" transform="translate(0.45,-72)">
					<title>Sheet.18</title>
					<desc>numerous simple classes</desc>
					<v:textBlock v:margins="rect(4,4,2,4)"/>
					<v:textRect cx="25.2" cy="390.04" width="50.4" height="43.2"/>
					<rect x="0" y="368.44" width="50.4" height="43.2" class="st10"/>
					<text x="6.97" y="383.54" class="st11" v:langID="1033"><v:paragraph v:spLine="-1" v:horizAlign="1"/><v:tabList/>numerous <tspan
								x="13.35" dy="1em" class="st3">simple<v:newlineChar/></tspan><tspan x="11.53" dy="1em" class="st3">classes</tspan></text>				</g>
				<g id="shape238-182" v:mID="238" v:groupContext="shape" transform="translate(0.45,0)">
					<title>2d Balloon</title>
					<desc>Classes that affect the signal</desc>
					<v:textBlock v:margins="rect(4,2,2,2)"/>
					<v:textRect cx="25.2" cy="382.84" width="50.4" height="57.6"/>
					<g id="shadow238-183" v:groupContext="shadow" v:shadowOffsetX="2.12132" v:shadowOffsetY="-2.12132"
							v:shadowType="1" transform="matrix(1,0,0,1,2.12132,2.12132)" class="st12">
						<path d="M0 379.24 L0 354.04 L21.6 354.04 L25.2 339.64 L28.8 354.04 L50.4 354.04 L50.4 379.24 L50.4 382.84
									 L50.4 386.44 L50.4 411.64 L28.8 411.64 L25.2 411.64 L21.6 411.64 L0 411.64 L0 386.44 L0 382.84
									 L0 379.24 Z" class="st13"/>
					</g>
					<path d="M0 379.24 L0 354.04 L21.6 354.04 L25.2 339.64 L28.8 354.04 L50.4 354.04 L50.4 379.24 L50.4 382.84 L50.4
								 386.44 L50.4 411.64 L28.8 411.64 L25.2 411.64 L21.6 411.64 L0 411.64 L0 386.44 L0 382.84 L0 379.24
								 Z" class="st14"/>
					<text x="10.62" y="376.34" class="st15" v:langID="1033"><v:paragraph v:spLine="-1" v:horizAlign="1"/><v:tabList/>Classes <v:newlineChar/><tspan
								x="7.19" dy="1em" class="st3">that affect </tspan><tspan x="7.65" dy="1em" class="st3">the signal</tspan></text>				</g>
				<g id="shape179-190" v:mID="179" v:groupContext="shape" transform="translate(54.225,-72)">
					<title>Sheet.179</title>
					<desc>numerous simple classes</desc>
					<v:textBlock v:margins="rect(4,4,2,4)"/>
					<v:textRect cx="25.2" cy="390.04" width="50.4" height="43.2"/>
					<rect x="0" y="368.44" width="50.4" height="43.2" class="st10"/>
					<text x="6.97" y="383.54" class="st11" v:langID="1033"><v:paragraph v:spLine="-1" v:horizAlign="1"/><v:tabList/>numerous <tspan
								x="13.35" dy="1em" class="st3">simple<v:newlineChar/></tspan><tspan x="11.53" dy="1em" class="st3">classes</tspan></text>				</g>
				<g id="shape239-195" v:mID="239" v:groupContext="shape" transform="translate(54.225,0)">
					<title>2d Balloon.239</title>
					<desc>Classes that sense or measure the signal</desc>
					<v:textBlock v:margins="rect(4,2,2,2)"/>
					<v:textRect cx="25.2" cy="382.84" width="50.4" height="57.6"/>
					<g id="shadow239-196" v:groupContext="shadow" v:shadowOffsetX="2.12132" v:shadowOffsetY="-2.12132"
							v:shadowType="1" transform="matrix(1,0,0,1,2.12132,2.12132)" class="st12">
						<path d="M0 379.24 L0 354.04 L21.6 354.04 L25.2 339.64 L28.8 354.04 L50.4 354.04 L50.4 379.24 L50.4 382.84
									 L50.4 386.44 L50.4 411.64 L28.8 411.64 L25.2 411.64 L21.6 411.64 L0 411.64 L0 386.44 L0 382.84
									 L0 379.24 Z" class="st13"/>
					</g>
					<path d="M0 379.24 L0 354.04 L21.6 354.04 L25.2 339.64 L28.8 354.04 L50.4 354.04 L50.4 379.24 L50.4 382.84 L50.4
								 386.44 L50.4 411.64 L28.8 411.64 L25.2 411.64 L21.6 411.64 L0 411.64 L0 386.44 L0 382.84 L0 379.24
								 Z" class="st14"/>
					<text x="10.62" y="371.34" class="st15" v:langID="1033"><v:paragraph v:spLine="-1" v:horizAlign="1"/><v:tabList/>Classes <v:newlineChar/><tspan
								x="6.28" dy="1em" class="st3">that sense </tspan><tspan x="4.46" dy="1em" class="st3">or measure </tspan><tspan
								x="7.65" dy="1em" class="st3">the signal</tspan></text>				</g>
				<g id="shape3-204" v:mID="3" v:groupContext="shape" transform="translate(9.1125,-230.4)">
					<title>Sheet.3</title>
					<desc>Workers</desc>
					<v:textBlock v:margins="rect(0,0,2,0)"/>
					<v:textRect cx="43.2" cy="390.04" width="86.4" height="43.2"/>
					<rect x="0" y="368.44" width="86.4" height="43.2" class="st16"/>
					<text x="24.89" y="392.04" class="st17" v:langID="1033"><v:paragraph v:spLine="-1" v:horizAlign="1"/><v:tabList/>Workers</text>				</g>
				<g id="shape125-207" v:mID="125" v:groupContext="shape" transform="translate(9.1125,-230.4)">
					<title>Sheet.125</title>
					<desc>ncWorker</desc>
					<v:textBlock v:margins="rect(4,0,2,0)"/>
					<v:textRect cx="43.2" cy="404.44" width="86.4" height="14.4"/>
					<rect x="0" y="397.24" width="86.4" height="14.4" class="st18"/>
					<text x="20.85" y="407.94" class="st30" v:langID="1033"><v:paragraph v:spLine="-1" v:horizAlign="1"/><v:tabList/>ncWorker</text>				</g>
				<g id="shape308-210" v:mID="308" v:groupContext="shape" transform="translate(463.953,127.24) rotate(90)">
					<title>Sheet.308</title>
					<path d="M0 411.64 L10.8 411.64" class="st9"/>
				</g>
				<g id="shape327-213" v:mID="327" v:groupContext="shape" transform="translate(437.29,274.84) rotate(90)">
					<title>Sheet.327</title>
					<path d="M10.2 411.64 L10.56 411.64 L21.6 411.64" class="st20"/>
				</g>
				<g id="shape328-218" v:mID="328" v:groupContext="shape" transform="translate(491.065,274.84) rotate(90)">
					<title>Sheet.328</title>
					<path d="M10.2 411.64 L10.56 411.64 L21.6 411.64" class="st20"/>
				</g>
				<g id="shape4-223" v:mID="4" v:groupContext="shape" transform="translate(0.45,-136.8)">
					<title>Sheet.4</title>
					<desc>Actuators</desc>
					<v:textBlock v:margins="rect(2,4,4,4)"/>
					<v:textRect cx="25.2" cy="379.24" width="50.4" height="64.8"/>
					<rect x="0" y="346.84" width="50.4" height="64.8" class="st16"/>
					<text x="6.15" y="380.99" class="st31" v:langID="1033"><v:paragraph v:spLine="-1" v:horizAlign="1"/><v:tabList/>Actuators</text>				</g>
				<g id="shape260-226" v:mID="260" v:groupContext="shape" transform="translate(3.9968E-14,-136.8)">
					<title>Sheet.260</title>
					<desc>nc Actuator</desc>
					<v:textBlock v:margins="rect(4,0,2,0)"/>
					<v:textRect cx="25.2" cy="399.04" width="50.4" height="25.2"/>
					<rect x="0" y="386.44" width="50.4" height="25.2" class="st18"/>
					<text x="2.37" y="402.29" class="st19" v:langID="1033"><v:paragraph v:spLine="-1" v:horizAlign="1"/><v:tabList/>nc Actuator</text>				</g>
				<g id="shape5-229" v:mID="5" v:groupContext="shape" transform="translate(54.225,-136.8)">
					<title>Sheet.5</title>
					<desc>Sensors</desc>
					<v:textBlock v:margins="rect(2,4,4,8)"/>
					<v:textRect cx="25.2" cy="379.24" width="50.4" height="64.8"/>
					<rect x="0" y="346.84" width="50.4" height="64.8" class="st16"/>
					<text x="10.65" y="380.99" class="st31" v:langID="1033"><v:paragraph v:spLine="-1" v:horizAlign="1"/><v:tabList/>Sensors</text>				</g>
				<g id="shape261-232" v:mID="261" v:groupContext="shape" transform="translate(54,-136.8)">
					<title>Sheet.261</title>
					<desc>ncSensor</desc>
					<v:textBlock v:margins="rect(4,0,2,0)"/>
					<v:textRect cx="25.2" cy="399.04" width="50.4" height="25.2"/>
					<rect x="0" y="386.44" width="50.4" height="25.2" class="st18"/>
					<text x="6.92" y="402.29" class="st19" v:langID="1033"><v:paragraph v:spLine="-1" v:horizAlign="1"/><v:tabList/>ncSensor</text>				</g>
				<g id="shape302-235" v:mID="302" v:groupContext="shape" transform="translate(463.953,181.24) rotate(90)">
					<title>Sheet.302</title>
					<path d="M10.2 411.64 L10.56 411.64 L20.81 411.64" class="st22"/>
				</g>
				<g id="group356-240" transform="translate(22.8375,-201.6)" v:mID="356" v:groupContext="group">
					<title>Sheet.356</title>
					<g id="shape229-241" v:mID="229" v:groupContext="shape" transform="translate(58.95,816.08) rotate(180)">
						<title>Sheet.229</title>
						<path d="M0 411.64 L58.95 411.64" class="st9"/>
					</g>
					<g id="shape230-244" v:mID="230" v:groupContext="shape" transform="translate(411.64,404.44) rotate(90)">
						<title>Sheet.230</title>
						<path d="M0 411.64 L7.2 411.64" class="st9"/>
					</g>
					<g id="shape231-247" v:mID="231" v:groupContext="shape" transform="translate(470.59,404.44) rotate(90)">
						<title>Sheet.231</title>
						<path d="M0 411.64 L7.2 411.64" class="st9"/>
					</g>
				</g>
			</g>
		</g>
	</g>
</svg>
