<?xml version="1.0" encoding="UTF-8" standalone="no"?>
<!DOCTYPE svg PUBLIC "-//W3C//DTD SVG 1.1//EN" "http://www.w3.org/Graphics/SVG/1.1/DTD/svg11.dtd">
<!-- Generated by Microsoft Visio, SVG Export Figure-4.svg Page-1 -->
<svg xmlns="http://www.w3.org/2000/svg" xmlns:xlink="http://www.w3.org/1999/xlink" xmlns:ev="http://www.w3.org/2001/xml-events"
		xmlns:v="http://schemas.microsoft.com/visio/2003/SVGExtensions/" width="6.60667in" height="1.65667in"
		viewBox="0 0 475.68 119.28" xml:space="preserve" color-interpolation-filters="sRGB" class="st16">
	<v:documentProperties v:langID="1033" v:viewMarkup="false">
		<v:userDefs>
			<v:ud v:nameU="msvConvertTheme"/>
		</v:userDefs>
	</v:documentProperties>

	<style type="text/css">
	<![CDATA[
		.st1 {fill:none;stroke:none;stroke-linecap:butt;stroke-width:0.24}
		.st2 {fill:#000000;font-family:Arial;font-size:0.916672em}
		.st3 {fill:#bfbfbf;stroke:#000000;stroke-linecap:butt;stroke-width:0.24}
		.st4 {fill:#ffff99;stroke:#000000;stroke-linecap:butt;stroke-width:0.24}
		.st5 {fill:#ffff99;stroke:none;stroke-linecap:butt;stroke-width:7.2}
		.st6 {fill:#000000;font-family:Arial Narrow;font-size:0.833336em}
		.st7 {font-size:1em}
		.st8 {fill:#d8d8d8;stroke:#000000;stroke-linecap:butt;stroke-width:0.24}
		.st9 {fill:#000000;font-family:Arial;font-size:0.833336em}
		.st10 {fill:#ffffff;stroke:#000000;stroke-linecap:butt;stroke-width:0.24}
		.st11 {fill:#000000;font-family:Arial;font-size:0.666664em}
		.st12 {fill:#ffff99;stroke:none;stroke-linecap:butt}
		.st13 {stroke:#66ff66;stroke-linecap:butt;stroke-width:2.25}
		.st14 {fill:#66ff66;stroke:#000000;stroke-linecap:butt;stroke-width:0.24}
		.st15 {stroke:#66ff66;stroke-linecap:butt;stroke-width:1.5}
		.st16 {fill:none;fill-rule:evenodd;font-size:12px;overflow:visible;stroke-linecap:square;stroke-miterlimit:3}
	]]>
	</style>

	<g v:mID="0" v:index="1" v:groupContext="foregroundPage">
		<title>Page-1</title>
		<v:pageProperties v:drawingScale="1" v:pageScale="1" v:drawingUnits="19" v:shadowOffsetX="9" v:shadowOffsetY="-9"/>
		<g id="shape124-1" v:mID="124" v:groupContext="shape" transform="translate(385.44,-68.94)">
			<title>Sheet.124</title>
			<desc>post-fader out</desc>
			<v:textBlock v:margins="rect(4,4,2,4)"/>
			<v:textRect cx="45" cy="112.08" width="90" height="14.4"/>
			<rect x="0" y="104.88" width="90" height="14.4" class="st1"/>
			<text x="4" y="115.83" class="st2" v:langID="1033"><v:paragraph v:spLine="-1"/><v:tabList/>post-fader out</text>		</g>
		<g id="shape125-4" v:mID="125" v:groupContext="shape" transform="translate(32.64,-25.44)">
			<title>Sheet.125</title>
			<rect x="0" y="50.88" width="342" height="68.4" rx="4.5" ry="4.5" class="st3"/>
		</g>
		<g id="shape126-6" v:mID="126" v:groupContext="shape" transform="translate(57.84,-61.74)">
			<title>Sheet.126</title>
			<desc>2-pos switch</desc>
			<v:textBlock v:margins="rect(4,0,2,0)"/>
			<v:textRect cx="21.6" cy="104.88" width="43.2" height="28.8"/>
			<rect x="0" y="90.48" width="43.2" height="28.8" class="st4"/>
			<rect v:rectContext="textBkgnd" x="10.2085" y="95.6227" width="22.7829" height="20.2574" class="st5"/>
			<text x="11.34" y="103.38" class="st6" v:langID="1033"><v:paragraph v:spLine="-1" v:horizAlign="1"/><v:tabList/>2-pos <tspan
						x="10.21" dy="1em" class="st7">switch</tspan></text>		</g>
		<g id="shape128-11" v:mID="128" v:groupContext="shape" transform="translate(122.64,-61.74)">
			<title>Sheet.128</title>
			<desc>gain</desc>
			<v:textBlock v:margins="rect(4,0,2,0)"/>
			<v:textRect cx="18" cy="104.88" width="36" height="28.8"/>
			<rect x="0" y="90.48" width="36" height="28.8" class="st4"/>
			<rect v:rectContext="textBkgnd" x="10.2486" y="100.623" width="15.5025" height="10.2574" class="st5"/>
			<text x="10.25" y="108.38" class="st6" v:langID="1033"><v:paragraph v:spLine="-1" v:horizAlign="1"/><v:tabList/>gain</text>		</g>
		<g id="shape129-15" v:mID="129" v:groupContext="shape" transform="translate(180.24,-61.74)">
			<title>Sheet.129</title>
			<desc>EqualizerA</desc>
			<v:textBlock v:margins="rect(4,0,2,0)"/>
			<v:textRect cx="32.4" cy="104.88" width="64.8" height="28.8"/>
			<rect x="0" y="90.48" width="64.8" height="28.8" rx="4.5" ry="4.5" class="st8"/>
			<text x="8.22" y="108.38" class="st9" v:langID="1033"><v:paragraph v:spLine="-1" v:horizAlign="1"/><v:tabList/>EqualizerA</text>		</g>
		<g id="shape131-18" v:mID="131" v:groupContext="shape" transform="translate(263.04,-61.74)">
			<title>Sheet.131</title>
			<desc>gain</desc>
			<v:textBlock v:margins="rect(4,0,2,0)"/>
			<v:textRect cx="18" cy="104.88" width="36" height="28.8"/>
			<rect x="0" y="90.48" width="36" height="28.8" class="st4"/>
			<rect v:rectContext="textBkgnd" x="10.2486" y="100.623" width="15.5025" height="10.2574" class="st5"/>
			<text x="10.25" y="108.38" class="st6" v:langID="1033"><v:paragraph v:spLine="-1" v:horizAlign="1"/><v:tabList/>gain</text>		</g>
		<g id="shape134-22" v:mID="134" v:groupContext="shape" transform="translate(0.24,-47.04)">
			<title>Sheet.134</title>
			<desc>mic in</desc>
			<v:textBlock v:margins="rect(4,0,2,0)"/>
			<v:textRect cx="10.8" cy="108.48" width="21.6" height="21.6"/>
			<rect x="0" y="97.68" width="21.6" height="21.6" class="st1"/>
			<text x="2.25" y="106.73" class="st2" v:langID="1033"><v:paragraph v:spLine="-1" v:horizAlign="1"/><v:tabList/>mic<v:newlineChar/><tspan
						x="6.52" dy="1em" class="st7">in</tspan></text>		</g>
		<g id="shape140-26" v:mID="140" v:groupContext="shape" transform="translate(36.24,-101.04)">
			<title>2d Balloon.140</title>
			<desc>PAD 0, 20dB</desc>
			<v:textBlock v:margins="rect(4,4,2,4)"/>
			<v:textRect cx="25.2" cy="110.28" width="50.4" height="18"/>
			<path d="M0 108.03 L0 101.28 L18.9 101.28 L25.2 101.28 L31.5 101.28 L50.4 101.28 L50.4 108.03 L50.4 110.28 L50.4 112.53
						 L50.4 119.28 L31.5 119.28 L43.2 129.78 L18.9 119.28 L0 119.28 L0 112.53 L0 110.28 L0 108.03 Z"
					class="st10"/>
			<text x="16.98" y="109.28" class="st11" v:langID="1033"><v:paragraph v:spLine="-1" v:horizAlign="1"/><v:tabList/>PAD<v:newlineChar/><tspan
						x="11.41" dy="1em" class="st7">0, 20dB</tspan></text>		</g>
		<g id="shape141-30" v:mID="141" v:groupContext="shape" transform="translate(317.04,-61.74)">
			<title>Sheet.141</title>
			<desc>mute</desc>
			<v:textBlock v:margins="rect(4,0,2,0)"/>
			<v:textRect cx="18" cy="104.88" width="36" height="28.8"/>
			<rect x="0" y="90.48" width="36" height="28.8" class="st4"/>
			<rect v:rectContext="textBkgnd" x="8.88382" y="100.623" width="18.2321" height="10.2574" class="st12"/>
			<text x="8.88" y="108.38" class="st6" v:langID="1033"><v:paragraph v:spLine="-1" v:horizAlign="1"/><v:tabList/>mute</text>		</g>
		<g id="shape147-34" v:mID="147" v:groupContext="shape" transform="translate(57.84,-32.64)">
			<title>Sheet.147</title>
			<desc>2-pos switch</desc>
			<v:textBlock v:margins="rect(4,0,2,0)"/>
			<v:textRect cx="21.6" cy="108.33" width="43.2" height="21.9"/>
			<rect x="0" y="97.38" width="43.2" height="21.9" class="st4"/>
			<text x="11.34" y="106.83" class="st6" v:langID="1033"><v:paragraph v:spLine="-1" v:horizAlign="1"/><v:tabList/>2-pos <tspan
						x="10.21" dy="1em" class="st7">switch</tspan></text>		</g>
		<g id="shape148-38" v:mID="148" v:groupContext="shape" transform="translate(97.44,-101.04)">
			<title>2d Balloon.148</title>
			<desc>Preamp Gain</desc>
			<v:textBlock v:margins="rect(4,4,2,4)"/>
			<v:textRect cx="25.2" cy="110.28" width="50.4" height="18"/>
			<path d="M0 108.03 L0 101.28 L18.9 101.28 L25.2 101.28 L31.5 101.28 L50.4 101.28 L50.4 108.03 L50.4 110.28 L50.4 112.53
						 L50.4 119.28 L31.5 119.28 L43.2 129.78 L18.9 119.28 L0 119.28 L0 112.53 L0 110.28 L0 108.03 Z"
					class="st10"/>
			<text x="11.19" y="109.28" class="st11" v:langID="1033"><v:paragraph v:spLine="-1" v:horizAlign="1"/><v:tabList/>Preamp <tspan
						x="16.75" dy="1em" class="st7">Gain</tspan></text>		</g>
		<g id="shape149-42" v:mID="149" v:groupContext="shape" transform="translate(219.84,-101.04)">
			<title>2d Balloon.149</title>
			<desc>Main Channel Fader</desc>
			<v:textBlock v:margins="rect(4,4,2,4)"/>
			<v:textRect cx="37.8" cy="110.28" width="75.61" height="18"/>
			<path d="M0 108.03 L0 101.28 L28.35 101.28 L37.8 101.28 L47.25 101.28 L75.6 101.28 L75.6 108.03 L75.6 110.28 L75.6 112.53
						 L75.6 119.28 L47.25 119.28 L61.2 129.78 L28.35 119.28 L0 119.28 L0 112.53 L0 110.28 L0 108.03 Z"
					class="st10"/>
			<text x="13.12" y="109.28" class="st11" v:langID="1033"><v:paragraph v:spLine="-1" v:horizAlign="1"/><v:tabList/>Main Channel <tspan
						x="27.35" dy="1em" class="st7">Fader</tspan></text>		</g>
		<g id="shape150-46" v:mID="150" v:groupContext="shape" transform="translate(86.64,-0.24)">
			<title>2d Balloon.121</title>
			<desc>Phantom Power</desc>
			<v:textBlock v:margins="rect(4,4,2,4)"/>
			<v:textRect cx="34.2" cy="110.28" width="68.4" height="18"/>
			<path d="M0 108.03 L0 101.28 L25.65 101.28 L-7.2 86.88 L42.75 101.28 L68.4 101.28 L68.4 108.03 L68.4 110.28 L68.4 112.53
						 L68.4 119.28 L42.75 119.28 L34.2 119.28 L25.65 119.28 L0 119.28 L0 112.53 L0 110.28 L0 108.03 Z"
					class="st10"/>
			<text x="5.74" y="113.28" class="st11" v:langID="1033"><v:paragraph v:spLine="-1" v:horizAlign="1"/><v:tabList/>Phantom Power</text>		</g>
		<g id="shape151-49" v:mID="151" v:groupContext="shape" transform="translate(144.24,-32.64)">
			<title>Sheet.151</title>
			<desc>Audio level meter</desc>
			<v:textBlock v:margins="rect(4,0,2,0)"/>
			<v:textRect cx="50.4" cy="108.33" width="100.8" height="21.9"/>
			<rect x="0" y="97.38" width="100.8" height="21.9" class="st4"/>
			<rect v:rectContext="textBkgnd" x="18.721" y="104.073" width="63.3582" height="10.2574" class="st5"/>
			<text x="18.72" y="111.83" class="st6" v:langID="1033"><v:paragraph v:spLine="-1" v:horizAlign="1"/><v:tabList/>Audio level meter</text>		</g>
		<g id="shape155-53" v:mID="155" v:groupContext="shape" transform="translate(187.44,-0.24)">
			<title>2d Balloon.127</title>
			<desc>VU Meter Sensor</desc>
			<v:textBlock v:margins="rect(4,4,2,4)"/>
			<v:textRect cx="32.4" cy="110.28" width="64.8" height="18"/>
			<path d="M0 108.03 L0 101.28 L24.3 101.28 L7.2 86.88 L40.5 101.28 L64.8 101.28 L64.8 108.03 L64.8 110.28 L64.8 112.53
						 L64.8 119.28 L40.5 119.28 L32.4 119.28 L24.3 119.28 L0 119.28 L0 112.53 L0 110.28 L0 108.03 Z"
					class="st10"/>
			<text x="15.51" y="109.28" class="st11" v:langID="1033"><v:paragraph v:spLine="-1" v:horizAlign="1"/><v:tabList/>VU Meter <tspan
						x="19.73" dy="1em" class="st7">Sensor</tspan></text>		</g>
		<g id="shape338-57" v:mID="338" v:groupContext="shape" transform="translate(385.44,-36.39)">
			<title>Sheet.338</title>
			<desc>pre-fader out</desc>
			<v:textBlock v:margins="rect(4,4,2,4)"/>
			<v:textRect cx="45" cy="112.08" width="90" height="14.4"/>
			<rect x="0" y="104.88" width="90" height="14.4" class="st1"/>
			<text x="4" y="115.83" class="st2" v:langID="1033"><v:paragraph v:spLine="-1"/><v:tabList/>pre-fader out</text>		</g>
		<g id="shape350-60" v:mID="350" v:groupContext="shape" transform="translate(353.04,-76.14)">
			<title>Sheet.350</title>
			<path d="M0 119.28 L21.6 119.28" class="st13"/>
		</g>
		<g id="group334-63" transform="translate(345.39,-68.94)" v:mID="334" v:groupContext="group">
			<title>Sheet.334</title>
			<desc>2</desc>
			<g id="shape335-64" v:mID="335" v:groupContext="shape">
				<title>Sheet.335</title>
				<path d="M12.26 117.52 L12.26 106.42 A7.425 7.3125 -180 1 0 12.26 117.52 Z" class="st10"/>
			</g>
			<g id="shape336-66" v:mID="336" v:groupContext="shape" transform="translate(12.2625,-1.76498)">
				<title>Sheet.336</title>
				<path d="M0 119.28 A7.425 7.3125 -180 0 0 0 108.18 L0 119.28 Z" class="st14"/>
			</g>
			<g id="shape334-68" v:mID="334" v:groupContext="groupContent">
				<v:textBlock v:margins="rect(4,4,2,4)"/>
				<v:textRect cx="6.13125" cy="111.967" width="12.27" height="14.625"/>
				<text x="4" y="115.72" class="st2" v:langID="1033"><v:paragraph v:spLine="-1" v:horizAlign="1"/><v:tabList/>2</text>			</g>
		</g>
		<g id="group333-70" transform="translate(363.84,-65.34)" v:mID="333" v:groupContext="group">
			<title>Sheet.333</title>
			<g id="shape330-71" v:mID="330" v:groupContext="shape" transform="translate(16.245,-5.44497)">
				<title>Sheet.330</title>
				<path d="M0 108.57 L0 119.28 L5.36 113.92 L0 108.57 Z" class="st14"/>
			</g>
			<g id="shape331-73" v:mID="331" v:groupContext="shape">
				<title>Sheet.331</title>
				<path d="M16.24 103.12 L10.8 97.68 L0 108.48 L10.8 119.28 L16.24 113.84 L16.24 103.12 Z" class="st10"/>
			</g>
			<g id="shape329-75" v:mID="329" v:groupContext="shape">
				<title>Sheet.329</title>
				<desc>2</desc>
				<v:textBlock v:margins="rect(4,4,2,4)"/>
				<v:textRect cx="10.8" cy="108.48" width="21.6" height="21.6"/>
				<text x="7.74" y="112.23" class="st2" v:langID="1033"><v:paragraph v:spLine="-1" v:horizAlign="1"/><v:tabList/>2</text>			</g>
		</g>
		<g id="group360-77" transform="translate(290.94,-68.94)" v:mID="360" v:groupContext="group">
			<title>Sheet.360</title>
			<g id="shape353-78" v:mID="353" v:groupContext="shape" transform="translate(11.25,-7.3125)">
				<title>Sheet.353</title>
				<path d="M0 119.28 L14.4 119.28" class="st13"/>
			</g>
			<g id="group354-81" v:mID="354" v:groupContext="group">
				<title>Sheet.354</title>
				<desc>2</desc>
				<g id="shape355-82" v:mID="355" v:groupContext="shape">
					<title>Sheet.355</title>
					<path d="M12.26 117.52 L12.26 106.42 A7.425 7.3125 -180 1 0 12.26 117.52 Z" class="st10"/>
				</g>
				<g id="shape356-84" v:mID="356" v:groupContext="shape" transform="translate(12.2625,-1.76498)">
					<title>Sheet.356</title>
					<path d="M0 119.28 A7.425 7.3125 -180 0 0 0 108.18 L0 119.28 Z" class="st14"/>
				</g>
				<g id="shape354-86" v:mID="354" v:groupContext="groupContent">
					<v:textBlock v:margins="rect(4,4,2,4)"/>
					<v:textRect cx="6.13125" cy="111.967" width="12.27" height="14.625"/>
					<text x="4" y="115.72" class="st2" v:langID="1033"><v:paragraph v:spLine="-1" v:horizAlign="1"/><v:tabList/>2</text>				</g>
			</g>
			<g id="group357-88" transform="translate(18.45,1.42109E-14)" v:mID="357" v:groupContext="group">
				<title>Sheet.357</title>
				<desc>1</desc>
				<g id="shape358-89" v:mID="358" v:groupContext="shape">
					<title>Sheet.358</title>
					<path d="M12.26 117.52 L12.26 106.42 A7.425 7.3125 -180 1 0 12.26 117.52 Z" class="st10"/>
				</g>
				<g id="shape359-91" v:mID="359" v:groupContext="shape" transform="translate(12.2625,-1.76498)">
					<title>Sheet.359</title>
					<path d="M0 119.28 A7.425 7.3125 -180 0 0 0 108.18 L0 119.28 Z" class="st14"/>
				</g>
				<g id="shape357-93" v:mID="357" v:groupContext="groupContent">
					<v:textBlock v:margins="rect(4,4,2,4)"/>
					<v:textRect cx="6.13125" cy="111.967" width="12.27" height="14.625"/>
					<text x="4" y="115.72" class="st2" v:langID="1033"><v:paragraph v:spLine="-1" v:horizAlign="1"/><v:tabList/>1</text>				</g>
			</g>
		</g>
		<g id="group389-95" transform="translate(93.84,-69.0525)" v:mID="389" v:groupContext="group">
			<title>Sheet.389</title>
			<g id="shape390-96" v:mID="390" v:groupContext="shape" transform="translate(7.2,-7.2)">
				<title>Sheet.390</title>
				<path d="M0 119.28 L20.25 119.28" class="st13"/>
			</g>
			<g id="group391-99" v:mID="391" v:groupContext="group">
				<title>Sheet.391</title>
				<desc>2</desc>
				<g id="shape392-100" v:mID="392" v:groupContext="shape">
					<title>Sheet.392</title>
					<path d="M11.89 117.54 L11.89 106.62 A7.2 7.2 -180 1 0 11.89 117.54 Z" class="st10"/>
				</g>
				<g id="shape393-102" v:mID="393" v:groupContext="shape" transform="translate(11.8909,-1.73782)">
					<title>Sheet.393</title>
					<path d="M0 119.28 A7.2 7.2 -180 0 0 0 108.36 L0 119.28 Z" class="st14"/>
				</g>
				<g id="shape391-104" v:mID="391" v:groupContext="groupContent">
					<v:textBlock v:margins="rect(4,4,2,4)"/>
					<v:textRect cx="5.94545" cy="112.08" width="11.9" height="14.4"/>
					<text x="4" y="115.83" class="st2" v:langID="1033"><v:paragraph v:spLine="-1" v:horizAlign="1"/><v:tabList/>2</text>				</g>
			</g>
			<g id="group394-106" transform="translate(21.6,4.26326E-14)" v:mID="394" v:groupContext="group">
				<title>Sheet.394</title>
				<desc>1</desc>
				<g id="shape395-107" v:mID="395" v:groupContext="shape">
					<title>Sheet.395</title>
					<path d="M11.89 117.54 L11.89 106.62 A7.2 7.2 -180 1 0 11.89 117.54 Z" class="st10"/>
				</g>
				<g id="shape396-109" v:mID="396" v:groupContext="shape" transform="translate(11.8909,-1.73782)">
					<title>Sheet.396</title>
					<path d="M0 119.28 A7.2 7.2 -180 0 0 0 108.36 L0 119.28 Z" class="st14"/>
				</g>
				<g id="shape394-111" v:mID="394" v:groupContext="groupContent">
					<v:textBlock v:margins="rect(4,4,2,4)"/>
					<v:textRect cx="5.94545" cy="112.08" width="11.9" height="14.4"/>
					<text x="4" y="115.83" class="st2" v:langID="1033"><v:paragraph v:spLine="-1" v:horizAlign="1"/><v:tabList/>1</text>				</g>
			</g>
		</g>
		<g id="shape413-113" v:mID="413" v:groupContext="shape" transform="translate(131.584,-39.69)">
			<title>Sheet.413</title>
			<path d="M12.66 119.28 L4.45 119.18 A4.5 4.5 0 0 1 -0 114.68 L0 106.71 A4.5 4.5 0 0 1 4.48 102.21 L30.23 102.11 A4.5
						 4.5 -180 0 0 34.14 95.42 L27.06 82.72" class="st15"/>
		</g>
		<g id="shape380-116" v:mID="380" v:groupContext="shape" transform="translate(158.64,-76.2525)">
			<title>Sheet.380</title>
			<path d="M0 119.28 L20.25 119.28" class="st13"/>
		</g>
		<g id="group381-119" transform="translate(151.44,-69.0525)" v:mID="381" v:groupContext="group">
			<title>Sheet.381</title>
			<desc>2</desc>
			<g id="shape382-120" v:mID="382" v:groupContext="shape">
				<title>Sheet.382</title>
				<path d="M11.89 117.54 L11.89 106.62 A7.2 7.2 -180 1 0 11.89 117.54 Z" class="st10"/>
			</g>
			<g id="shape383-122" v:mID="383" v:groupContext="shape" transform="translate(11.8909,-1.73782)">
				<title>Sheet.383</title>
				<path d="M0 119.28 A7.2 7.2 -180 0 0 0 108.36 L0 119.28 Z" class="st14"/>
			</g>
			<g id="shape381-124" v:mID="381" v:groupContext="groupContent">
				<v:textBlock v:margins="rect(4,4,2,4)"/>
				<v:textRect cx="5.94545" cy="112.08" width="11.9" height="14.4"/>
				<text x="4" y="115.83" class="st2" v:langID="1033"><v:paragraph v:spLine="-1" v:horizAlign="1"/><v:tabList/>2</text>			</g>
		</g>
		<g id="group397-126" transform="translate(137.04,-36.54)" v:mID="397" v:groupContext="group">
			<title>Sheet.397</title>
			<desc>1</desc>
			<g id="shape398-127" v:mID="398" v:groupContext="shape">
				<title>Sheet.398</title>
				<path d="M11.89 117.54 L11.89 106.62 A7.2 7.2 -180 1 0 11.89 117.54 Z" class="st10"/>
			</g>
			<g id="shape399-129" v:mID="399" v:groupContext="shape" transform="translate(11.8909,-1.73782)">
				<title>Sheet.399</title>
				<path d="M0 119.28 A7.2 7.2 -180 0 0 0 108.36 L0 119.28 Z" class="st14"/>
			</g>
			<g id="shape397-131" v:mID="397" v:groupContext="groupContent">
				<v:textBlock v:margins="rect(4,4,2,4)"/>
				<v:textRect cx="5.94545" cy="112.08" width="11.9" height="14.4"/>
				<text x="4" y="115.83" class="st2" v:langID="1033"><v:paragraph v:spLine="-1" v:horizAlign="1"/><v:tabList/>1</text>			</g>
		</g>
		<g id="shape416-133" v:mID="416" v:groupContext="shape" transform="translate(245.04,-43.44)">
			<title>Sheet.416</title>
			<path d="M0 86.47 L21.6 119.28 L129.6 119.28" class="st15"/>
		</g>
		<g id="group346-136" transform="translate(363.84,-32.79)" v:mID="346" v:groupContext="group">
			<title>Sheet.346</title>
			<g id="shape340-137" v:mID="340" v:groupContext="shape" transform="translate(16.245,-5.44497)">
				<title>Sheet.340</title>
				<path d="M0 108.57 L0 119.28 L5.36 113.92 L0 108.57 Z" class="st14"/>
			</g>
			<g id="shape341-139" v:mID="341" v:groupContext="shape">
				<title>Sheet.341</title>
				<path d="M16.24 103.12 L10.8 97.68 L0 108.48 L10.8 119.28 L16.24 113.84 L16.24 103.12 Z" class="st10"/>
			</g>
			<g id="shape343-141" v:mID="343" v:groupContext="shape">
				<title>Sheet.343</title>
				<desc>3</desc>
				<v:textBlock v:margins="rect(4,4,2,4)"/>
				<v:textRect cx="10.8" cy="108.48" width="21.6" height="21.6"/>
				<text x="7.74" y="112.23" class="st2" v:langID="1033"><v:paragraph v:spLine="-1" v:horizAlign="1"/><v:tabList/>3</text>			</g>
		</g>
		<g id="shape417-143" v:mID="417" v:groupContext="shape" transform="translate(-31.8616,-40.6958) rotate(-32.7352)">
			<title>Sheet.417</title>
			<path d="M0 119.28 L29.96 119.28" class="st13"/>
		</g>
		<g id="group400-146" transform="translate(50.64,-68.64)" v:mID="400" v:groupContext="group">
			<title>Sheet.400</title>
			<desc>1</desc>
			<g id="shape401-147" v:mID="401" v:groupContext="shape">
				<title>Sheet.401</title>
				<path d="M11.89 117.54 L11.89 106.62 A7.2 7.2 -180 1 0 11.89 117.54 Z" class="st10"/>
			</g>
			<g id="shape402-149" v:mID="402" v:groupContext="shape" transform="translate(11.8909,-1.73782)">
				<title>Sheet.402</title>
				<path d="M0 119.28 A7.2 7.2 -180 0 0 0 108.36 L0 119.28 Z" class="st14"/>
			</g>
			<g id="shape400-151" v:mID="400" v:groupContext="groupContent">
				<v:textBlock v:margins="rect(4,4,2,4)"/>
				<v:textRect cx="5.94545" cy="112.08" width="11.9" height="14.4"/>
				<text x="4" y="115.83" class="st2" v:langID="1033"><v:paragraph v:spLine="-1" v:horizAlign="1"/><v:tabList/>1</text>			</g>
		</g>
		<g id="group418-153" transform="translate(21.84,-47.04)" v:mID="418" v:groupContext="group">
			<title>Sheet.418</title>
			<desc>1</desc>
			<g id="shape419-154" v:mID="419" v:groupContext="shape" transform="translate(16.245,-5.44497)">
				<title>Sheet.419</title>
				<path d="M0 108.57 L0 119.28 L5.36 113.92 L0 108.57 Z" class="st14"/>
			</g>
			<g id="shape420-156" v:mID="420" v:groupContext="shape">
				<title>Sheet.420</title>
				<path d="M16.24 103.12 L10.8 97.68 L0 108.48 L10.8 119.28 L16.24 113.84 L16.24 103.12 Z" class="st10"/>
			</g>
			<g id="shape418-158" v:mID="418" v:groupContext="groupContent">
				<v:textBlock v:margins="rect(4,4,2,4)"/>
				<v:textRect cx="10.8" cy="108.48" width="21.6" height="21.6"/>
				<text x="7.74" y="112.23" class="st2" v:langID="1033"><v:paragraph v:spLine="-1" v:horizAlign="1"/><v:tabList/>1</text>			</g>
		</g>
		<g id="group576-160" transform="translate(173.04,-69.3619)" v:mID="576" v:groupContext="group">
			<title>Sheet.576</title>
			<g id="shape572-161" v:mID="572" v:groupContext="shape" transform="translate(10.83,-3.44801)">
				<title>Sheet.572</title>
				<path d="M0 112.5 L0 119.28 L3.57 115.89 L0 112.5 Z" class="st14"/>
			</g>
			<g id="shape573-163" v:mID="573" v:groupContext="shape">
				<title>Sheet.573</title>
				<path d="M10.83 109.05 L7.2 105.6 L0 112.44 L7.2 119.28 L10.83 115.83 L10.83 109.05 Z" class="st10"/>
			</g>
			<g id="shape575-165" v:mID="575" v:groupContext="shape">
				<title>Sheet.575</title>
				<desc>1</desc>
				<v:textBlock v:margins="rect(4,4,2,4)"/>
				<v:textRect cx="7.2" cy="112.441" width="14.41" height="13.6781"/>
				<text x="4.14" y="116.19" class="st2" v:langID="1033"><v:paragraph v:spLine="-1" v:horizAlign="1"/><v:tabList/>1</text>			</g>
		</g>
		<g id="shape362-167" v:mID="362" v:groupContext="shape" transform="translate(245.04,-76.2525)">
			<title>Sheet.362</title>
			<path d="M0 119.28 L18.45 119.28" class="st13"/>
		</g>
		<g id="group583-170" transform="translate(237.84,-69.3619)" v:mID="583" v:groupContext="group">
			<title>Sheet.583</title>
			<g id="shape579-171" v:mID="579" v:groupContext="shape" transform="translate(10.83,-3.44801)">
				<title>Sheet.579</title>
				<path d="M0 112.5 L0 119.28 L3.57 115.89 L0 112.5 Z" class="st14"/>
			</g>
			<g id="shape580-173" v:mID="580" v:groupContext="shape">
				<title>Sheet.580</title>
				<path d="M10.83 109.05 L7.2 105.6 L0 112.44 L7.2 119.28 L10.83 115.83 L10.83 109.05 Z" class="st10"/>
			</g>
			<g id="shape582-175" v:mID="582" v:groupContext="shape">
				<title>Sheet.582</title>
				<desc>2</desc>
				<v:textBlock v:margins="rect(4,4,2,4)"/>
				<v:textRect cx="7.2" cy="112.441" width="14.41" height="13.6781"/>
				<text x="4.14" y="116.19" class="st2" v:langID="1033"><v:paragraph v:spLine="-1" v:horizAlign="1"/><v:tabList/>2</text>			</g>
		</g>
		<g id="group366-177" transform="translate(255.84,-69.0525)" v:mID="366" v:groupContext="group">
			<title>Sheet.366</title>
			<desc>1</desc>
			<g id="shape367-178" v:mID="367" v:groupContext="shape">
				<title>Sheet.367</title>
				<path d="M11.89 117.54 L11.89 106.62 A7.2 7.2 -180 1 0 11.89 117.54 Z" class="st10"/>
			</g>
			<g id="shape368-180" v:mID="368" v:groupContext="shape" transform="translate(11.8909,-1.73782)">
				<title>Sheet.368</title>
				<path d="M0 119.28 A7.2 7.2 -180 0 0 0 108.36 L0 119.28 Z" class="st14"/>
			</g>
			<g id="shape366-182" v:mID="366" v:groupContext="groupContent">
				<v:textBlock v:margins="rect(4,4,2,4)"/>
				<v:textRect cx="5.94545" cy="112.08" width="11.9" height="14.4"/>
				<text x="4" y="115.83" class="st2" v:langID="1033"><v:paragraph v:spLine="-1" v:horizAlign="1"/><v:tabList/>1</text>			</g>
		</g>
	</g>
</svg>
